<?xml version="1.0" standalone="no"?>
<!DOCTYPE svg PUBLIC "-//W3C//DTD SVG 20010904//EN"
 "http://www.w3.org/TR/2001/REC-SVG-20010904/DTD/svg10.dtd">
<svg version="1.0" xmlns="http://www.w3.org/2000/svg"
 width="603.000000pt" height="1024.000000pt" viewBox="0 0 603.000000 1024.000000"
 preserveAspectRatio="xMidYMid meet">

<g transform="translate(0.000000,1024.000000) scale(0.100000,-0.100000)"
fill="#000000" stroke="none">
<path d="M2663 10230 c-12 -5 -34 -27 -49 -50 -29 -44 -40 -48 -70 -25 -29 22
-87 18 -142 -11 -46 -24 -54 -25 -107 -15 -108 20 -210 -23 -246 -103 -19 -44
-19 -49 14 -251 14 -89 12 -102 -24 -148 -17 -20 -46 -72 -66 -115 -61 -131
-69 -134 -203 -72 -59 27 -107 42 -151 46 -81 8 -109 23 -186 95 -46 42 -77
62 -115 74 -101 30 -192 11 -262 -53 -38 -35 -50 -40 -87 -40 -98 2 -219 -91
-289 -223 -18 -33 -46 -77 -64 -97 -49 -56 -143 -121 -201 -137 -60 -18 -132
-75 -150 -119 -7 -17 -16 -58 -20 -91 -11 -87 -26 -116 -105 -200 -114 -120
-154 -239 -115 -340 13 -34 23 -46 43 -51 61 -13 62 -14 62 -53 0 -31 8 -44
48 -83 26 -25 63 -53 83 -61 31 -13 44 -30 94 -123 43 -80 79 -130 137 -191
43 -46 78 -88 78 -93 0 -21 41 -50 70 -50 107 0 185 51 218 142 9 26 20 48 23
48 9 0 17 -34 25 -113 6 -64 5 -70 -18 -95 -36 -38 -48 -65 -48 -108 0 -29
-10 -50 -44 -93 -73 -94 -97 -160 -76 -210 9 -24 8 -35 -14 -76 -22 -41 -26
-61 -26 -136 0 -48 4 -99 10 -113 7 -18 5 -33 -5 -53 -8 -15 -15 -46 -15 -69
0 -48 41 -135 77 -164 23 -18 24 -22 13 -54 -23 -71 37 -206 129 -287 61 -53
75 -76 85 -139 9 -54 38 -93 100 -134 50 -33 56 -41 56 -71 0 -19 5 -57 11
-85 10 -45 17 -55 66 -91 51 -38 55 -43 49 -73 -28 -141 -12 -336 54 -654 56
-273 56 -237 0 -442 -16 -56 -22 -114 -25 -227 -5 -166 -23 -265 -58 -328
l-23 -40 -103 3 c-160 4 -184 -9 -225 -131 -19 -54 -28 -65 -80 -101 -32 -23
-64 -52 -71 -66 -18 -32 -18 -124 0 -175 22 -61 19 -73 -24 -95 -40 -20 -63
-45 -93 -99 -14 -25 -23 -31 -51 -31 -27 0 -42 -8 -66 -35 -26 -30 -31 -44
-31 -88 0 -29 -7 -65 -15 -81 -8 -15 -15 -49 -15 -75 0 -25 -4 -62 -10 -81 -5
-19 -13 -77 -16 -130 -6 -85 -9 -98 -34 -125 -40 -43 -50 -68 -50 -118 0 -89
9 -108 60 -130 l47 -20 6 -146 c6 -158 6 -157 87 -346 39 -91 62 -132 80 -143
14 -8 41 -26 61 -39 25 -16 60 -26 116 -33 44 -5 120 -16 169 -25 49 -10 110
-15 136 -13 l47 5 -26 -34 c-50 -66 -40 -188 23 -262 31 -38 125 -78 209 -90
39 -6 351 -18 695 -28 671 -19 2169 -21 2470 -4 184 11 250 30 314 95 68 68
81 105 78 219 -2 72 1 98 10 101 308 87 456 172 488 279 15 51 38 87 56 87 16
0 34 39 34 73 0 12 12 31 26 42 24 19 27 30 35 121 16 170 24 199 74 239 35
29 44 44 50 80 3 25 3 66 -1 91 -5 39 -12 50 -41 66 -52 31 -67 68 -59 152 5
61 3 75 -14 101 -11 17 -20 42 -20 56 0 51 -21 89 -58 107 -25 12 -38 26 -44
47 -4 17 -21 44 -38 60 -19 19 -30 39 -30 57 0 22 -10 35 -50 64 -58 42 -70
71 -46 120 19 40 21 106 5 137 -17 33 -61 78 -85 87 -16 6 -23 21 -28 54 -9
56 -42 97 -110 136 -48 28 -58 30 -159 30 -60 0 -116 4 -126 10 -28 14 -68
118 -75 193 -7 72 -37 164 -93 287 -44 96 -45 145 -4 237 67 154 86 295 78
578 -7 254 -4 293 30 301 32 8 53 41 53 85 0 23 7 42 20 54 13 11 20 31 20 53
0 28 9 42 49 81 35 33 53 59 61 90 6 24 29 72 51 106 29 46 39 73 39 104 0 22
3 41 8 41 17 0 110 91 125 122 13 27 13 42 5 80 -11 45 -10 48 20 83 37 42 65
94 81 150 8 31 8 44 -4 62 -21 31 -20 37 20 94 59 86 71 170 34 246 -19 40
-20 49 -9 88 16 59 7 117 -31 183 -29 51 -29 55 -13 73 22 24 13 67 -28 133
-17 28 -39 77 -48 108 -11 34 -37 81 -65 117 -35 45 -46 66 -43 88 2 23 8 29
35 31 38 4 58 -21 68 -88 10 -62 19 -76 69 -105 79 -46 138 -28 214 67 28 36
72 82 97 102 30 25 56 60 78 104 29 60 41 73 117 127 119 83 231 199 270 279
57 115 33 185 -115 347 -36 39 -65 76 -66 82 0 7 -1 53 -3 102 -2 70 -7 99
-24 132 -43 83 -128 129 -290 159 -120 21 -130 28 -157 99 -56 151 -105 214
-233 299 -92 61 -153 79 -249 75 -127 -6 -245 -75 -333 -194 -37 -50 -42 -53
-95 -60 -31 -3 -93 -17 -138 -31 -136 -39 -154 -32 -176 68 -10 47 -22 69 -64
115 l-52 56 0 121 c0 104 -3 127 -22 162 -12 22 -29 46 -37 53 -9 8 -16 26
-16 40 0 45 -29 128 -56 160 -41 49 -98 64 -214 59 l-100 -5 -34 33 c-49 47
-94 53 -157 20 -61 -31 -64 -31 -96 -6 -27 21 -87 27 -98 10 -17 -28 -44 -30
-73 -5 -36 30 -53 31 -77 5 -10 -11 -24 -20 -32 -20 -8 0 -31 9 -53 20 -43 22
-101 26 -148 9 -25 -9 -36 -8 -54 5 -25 18 -33 19 -65 6z m570 -108 c29 -32
32 -102 8 -155 -24 -53 -27 -99 -8 -116 8 -6 57 -22 109 -35 179 -45 298 -117
354 -212 14 -23 32 -78 40 -123 11 -59 25 -95 50 -132 24 -37 34 -62 34 -91 0
-41 2 -39 -96 -129 -21 -19 -46 -46 -55 -60 l-17 -24 -28 21 c-16 11 -48 54
-72 94 -24 41 -51 79 -60 86 -21 15 -22 14 64 57 70 35 134 81 134 97 0 4 -44
-9 -97 -30 -171 -67 -279 -75 -329 -25 -32 32 -31 77 2 143 31 62 80 107 134
123 62 19 106 1 194 -82 42 -39 76 -67 76 -61 0 19 -82 132 -118 162 -66 54
-168 59 -244 12 -71 -44 -158 -155 -158 -202 0 -14 14 -48 31 -74 35 -52 52
-112 39 -136 -12 -22 -104 -53 -143 -47 -31 4 -85 22 -117 37 -26 12 -23 70 5
141 27 65 27 67 11 121 -19 68 -63 129 -118 165 -36 24 -51 28 -117 28 -65 0
-83 -4 -124 -28 -54 -32 -185 -152 -176 -161 3 -3 50 25 104 62 90 62 102 67
150 67 95 -1 159 -59 159 -145 0 -57 -22 -94 -74 -124 -47 -28 -108 -25 -225
11 -99 31 -123 36 -158 34 -29 -2 -9 -21 22 -21 26 0 57 -17 128 -70 16 -11
54 -24 88 -28 l60 -8 -36 -16 c-43 -19 -75 -57 -91 -110 -6 -22 -23 -49 -37
-61 -15 -12 -34 -42 -44 -67 -17 -44 -17 -45 3 -72 21 -29 29 -128 10 -128 -5
0 -25 16 -44 35 -20 19 -40 35 -46 35 -20 0 -9 -24 23 -51 l32 -27 0 -108 0
-109 45 -13 c95 -28 131 -45 147 -68 14 -22 14 -28 -2 -70 -14 -36 -21 -45
-39 -42 -12 2 -28 17 -38 36 -26 53 -45 68 -104 82 -83 20 -94 33 -95 108 -1
36 3 68 10 75 17 17 13 66 -9 94 -33 42 -26 86 20 132 37 36 40 44 40 94 l0
54 -80 72 c-117 106 -128 160 -48 247 40 43 41 46 39 109 -3 124 27 173 141
231 63 32 238 90 299 99 25 4 52 10 59 15 25 16 15 67 -23 116 -31 39 -37 55
-37 94 0 25 5 51 12 58 21 21 84 14 115 -12 25 -22 28 -30 26 -78 -1 -30 -11
-77 -22 -106 -12 -29 -21 -55 -21 -57 0 -3 28 -5 61 -5 l61 0 -7 47 c-4 26
-13 60 -21 75 -22 43 -18 95 11 123 35 36 63 32 81 -10 21 -51 18 -153 -6
-190 -23 -35 -14 -45 44 -45 l38 0 -5 38 c-3 20 -13 59 -22 85 -15 41 -16 54
-5 90 21 74 67 99 103 59z m216 0 c10 -18 5 -34 -44 -152 -40 -97 -80 -131
-113 -98 -21 21 -15 128 11 178 36 73 123 116 146 72z m-717 -54 c15 -17 30
-48 33 -68 7 -44 -9 -112 -32 -135 -15 -15 -17 -14 -37 18 -12 19 -36 56 -53
82 -40 59 -41 88 -8 121 31 31 58 26 97 -18z m999 1 c85 -45 57 -129 -63 -190
-87 -44 -89 -79 -6 -79 29 0 45 -8 73 -35 19 -20 35 -40 35 -45 0 -6 9 -10 20
-10 32 0 24 30 -25 90 -50 61 -52 66 -28 92 33 37 93 8 93 -44 0 -17 13 -52
29 -77 16 -25 32 -57 36 -70 11 -37 -14 -107 -51 -143 -30 -29 -44 -58 -29
-58 3 0 15 6 26 13 19 11 25 7 66 -38 86 -95 103 -124 103 -174 0 -28 -10 -67
-25 -99 -14 -30 -25 -59 -25 -65 1 -7 15 -21 33 -32 38 -24 44 -50 27 -121
-11 -46 -10 -54 10 -94 21 -41 21 -45 6 -71 -9 -15 -16 -49 -16 -79 0 -42 -3
-51 -15 -46 -8 3 -22 9 -30 12 -19 8 -20 -16 0 -42 20 -27 18 -51 -6 -64 -24
-14 -21 -16 -47 36 -12 23 -28 44 -37 47 -19 8 -19 5 6 -52 14 -34 19 -64 17
-102 -3 -47 -6 -54 -25 -57 -31 -4 -81 52 -89 98 -3 19 -16 58 -30 85 -30 62
-31 115 -4 140 20 18 21 18 50 -10 28 -27 30 -28 30 -7 0 11 -12 34 -26 49
-23 25 -25 33 -19 78 6 51 25 96 71 173 18 30 28 63 31 106 l5 62 -73 108 -73
108 17 97 17 96 -49 46 c-38 36 -57 46 -86 47 -57 2 -143 46 -156 79 -24 61
42 130 114 119 28 -5 37 -3 37 8 0 33 -13 46 -45 46 -58 0 -83 -16 -110 -70
-21 -41 -30 -51 -48 -48 -33 5 -34 49 -3 103 29 48 73 80 132 94 42 11 127 5
155 -10z m-1194 -32 c75 -54 142 -217 88 -217 -7 0 -37 29 -65 65 -29 36 -60
70 -70 75 -39 21 -43 8 -9 -27 43 -46 69 -83 69 -100 0 -28 -37 -11 -81 37
-51 55 -78 62 -119 30 -14 -11 -41 -20 -62 -20 -45 0 -49 -13 -9 -30 38 -15
45 -34 20 -56 -27 -25 -24 -34 14 -34 48 0 71 29 69 85 -1 25 2 45 7 45 16 0
48 -53 55 -93 7 -36 4 -40 -64 -112 -94 -99 -113 -143 -104 -235 6 -67 5 -71
-27 -122 -31 -48 -34 -59 -34 -128 0 -67 4 -82 38 -148 21 -41 39 -87 39 -103
1 -33 -28 -71 -52 -67 -9 2 -31 -14 -50 -35 -41 -48 -78 -67 -128 -67 -67 0
-82 39 -32 83 41 37 40 75 -2 123 -31 35 -33 42 -33 110 0 82 16 111 54 99 29
-9 44 -40 52 -108 8 -64 31 -100 63 -95 15 2 24 14 30 40 13 54 -36 151 -98
195 -39 27 -46 38 -57 88 -11 49 -10 64 4 108 9 29 19 66 22 83 7 35 38 74 60
74 29 0 55 -50 56 -109 0 -31 3 -49 6 -41 3 8 14 33 25 55 26 50 26 106 2 141
-51 72 -58 113 -23 142 45 37 51 44 40 55 -7 7 -19 7 -37 -2 -22 -10 -29 -9
-35 1 -12 19 -11 116 2 140 17 31 91 60 124 48 44 -17 62 -12 111 31 54 47 71
46 141 -4z m-1204 -498 c29 -13 47 -48 47 -89 0 -19 8 -35 27 -48 23 -17 27
-28 31 -83 2 -35 8 -68 13 -73 11 -12 12 -60 2 -70 -5 -4 -8 -24 -8 -43 0 -25
-6 -39 -20 -47 -11 -6 -30 -17 -43 -24 l-23 -13 30 -35 c17 -19 31 -41 31 -49
0 -20 -37 -38 -65 -31 -13 3 -27 2 -30 -4 -3 -5 -1 -10 4 -10 20 0 70 -81 80
-131 9 -40 8 -57 -4 -84 -18 -45 -41 -45 -106 0 -94 64 -111 34 -23 -41 30
-26 62 -60 70 -75 42 -81 -19 -249 -82 -225 -19 7 -18 32 3 66 14 24 14 33 4
59 -14 33 -21 36 -95 46 -75 10 -125 69 -97 114 7 11 14 10 39 -4 16 -10 37
-15 46 -12 19 7 30 48 22 80 -7 28 -63 57 -109 57 -30 0 -57 14 -57 31 0 3 18
9 41 13 58 9 134 50 159 86 30 43 35 95 16 171 -27 106 -92 179 -156 179 -24
-1 -24 -1 5 -14 92 -41 145 -180 101 -264 -28 -54 -103 -102 -160 -102 -41 0
-39 17 4 56 74 67 89 123 43 166 -38 35 -58 44 -137 62 -121 28 -156 62 -156
148 0 45 19 78 57 97 34 17 59 13 91 -14 37 -31 42 -31 42 -1 0 16 -13 35 -36
54 -61 50 -11 75 53 26 39 -30 55 -27 117 21 24 18 57 40 72 49 34 18 123 21
157 5z m3664 -57 c83 -43 103 -99 58 -165 -14 -20 -21 -37 -15 -37 27 0 69 32
79 61 6 17 16 29 23 27 19 -7 21 -53 4 -68 -9 -7 -16 -16 -16 -21 0 -11 30 0
52 18 26 23 38 7 38 -50 0 -63 -30 -132 -60 -142 -12 -4 -51 -4 -87 0 -81 8
-93 0 -93 -67 0 -49 -13 -88 -29 -88 -5 0 -14 13 -21 30 -15 36 -30 30 -30
-10 0 -36 -25 -54 -95 -71 -61 -14 -117 -44 -134 -71 -6 -11 -15 -43 -18 -71
-3 -29 -10 -58 -16 -64 -14 -18 -67 -16 -89 4 -35 32 -16 136 36 193 41 45 88
140 82 166 -9 36 -36 31 -36 -6 0 -38 -24 -49 -51 -24 -36 32 -40 50 -22 81
14 25 14 32 2 58 -8 17 -22 31 -31 33 -16 3 -17 -6 -16 -85 2 -75 -1 -94 -20
-131 -31 -58 -72 -82 -145 -82 -71 0 -118 -22 -116 -53 6 -65 -26 -77 -81 -30
-60 50 -62 103 -4 103 28 0 38 6 58 39 31 49 32 49 103 62 90 17 128 41 148
93 10 26 14 53 10 63 -6 15 -9 12 -19 -15 -13 -39 -31 -52 -69 -52 -42 0 -91
-24 -153 -75 -84 -68 -124 -72 -124 -11 0 61 88 158 208 229 41 25 53 27 97
21 28 -3 63 -6 80 -5 16 0 39 -6 52 -14 35 -23 41 -19 53 43 19 95 78 161 177
198 55 21 177 13 230 -14z m-3392 -81 c30 -11 69 -29 86 -42 29 -21 30 -23 12
-30 -20 -7 -95 -12 -151 -10 -28 1 -35 7 -48 37 -28 67 1 80 101 45z m233 -35
c48 -25 102 -100 102 -142 0 -16 -3 -15 -22 3 -13 11 -42 30 -66 42 -26 13
-47 32 -53 49 -6 15 -18 35 -26 44 -15 17 -14 18 11 18 15 0 39 -6 54 -14z
m-105 -106 c93 -35 211 -128 223 -175 7 -29 -3 -92 -15 -100 -20 -12 -45 11
-68 64 -34 77 -88 148 -119 155 -47 12 -45 -6 4 -58 61 -64 91 -122 99 -186 5
-43 3 -51 -21 -75 -24 -24 -33 -27 -72 -22 -41 4 -57 -4 -34 -18 6 -3 10 -15
10 -27 0 -11 18 -38 40 -59 36 -35 40 -44 40 -89 0 -62 -33 -103 -78 -98 -25
3 -27 6 -24 45 6 68 -3 83 -49 83 -56 0 -116 33 -136 76 -10 20 -27 37 -40 40
-33 9 -44 34 -27 64 20 36 17 94 -6 134 -14 23 -17 36 -10 41 16 10 41 -15 61
-61 9 -23 23 -46 31 -50 18 -12 111 -25 183 -27 53 -2 60 0 63 18 2 12 -8 31
-22 45 -22 20 -40 24 -122 31 -90 6 -99 9 -127 37 -22 23 -30 40 -30 64 3 79
10 127 22 142 33 39 129 42 224 6z m1071 4 c3 -9 6 -47 6 -85 0 -61 3 -73 25
-94 13 -14 35 -25 49 -25 13 0 58 -13 99 -30 88 -35 106 -37 138 -11 42 32 63
33 116 5 44 -22 56 -24 88 -15 20 5 56 26 81 46 42 35 44 39 44 91 0 47 3 54
19 54 28 0 51 -38 51 -84 0 -61 -34 -122 -87 -152 -39 -24 -52 -26 -111 -22
-45 3 -84 14 -119 32 -63 32 -72 33 -47 5 25 -28 84 -54 157 -69 77 -15 114
-2 189 67 33 30 65 52 71 50 19 -7 12 -72 -12 -106 -37 -51 -88 -71 -183 -71
-96 1 -165 24 -247 84 -37 27 -51 33 -51 22 0 -25 69 -87 129 -115 51 -23 68
-26 176 -26 139 0 181 14 216 74 32 52 60 81 79 81 24 0 52 -58 48 -100 -4
-43 -31 -49 -36 -7 -2 15 -9 27 -17 27 -8 0 -22 -12 -32 -27 -74 -120 -203
-173 -348 -143 -106 22 -179 70 -216 142 -27 53 -36 54 -59 8 -30 -59 -132
-138 -216 -167 -120 -42 -140 -46 -168 -39 -21 5 -27 12 -24 29 3 21 13 26 91
42 37 8 34 25 -5 25 -42 1 -140 40 -146 59 -4 12 6 13 59 5 120 -16 207 -10
284 21 87 35 125 61 125 86 0 23 -23 25 -41 2 -23 -27 -89 -51 -173 -62 -124
-17 -181 -1 -236 69 -31 40 -37 79 -13 87 7 3 28 -18 48 -45 45 -64 78 -77
190 -77 73 0 97 4 125 21 67 39 42 88 -52 100 -72 10 -93 31 -112 115 -9 39
-16 82 -16 95 0 36 52 59 64 28z m576 -33 c14 -28 12 -86 -4 -126 -23 -55
-115 -87 -146 -50 -15 18 -16 17 38 44 l42 21 0 59 c0 32 3 61 7 64 13 14 53
6 63 -12z m-2629 -63 c24 -26 69 -57 121 -82 52 -26 88 -50 97 -67 20 -36 8
-75 -26 -87 -16 -5 -46 -21 -67 -36 -33 -22 -50 -26 -107 -26 -39 0 -71 -5
-75 -11 -12 -19 17 -27 77 -22 104 10 190 -41 205 -122 4 -21 12 -35 20 -35
25 0 27 -29 6 -78 -11 -26 -23 -79 -27 -117 -5 -59 -3 -81 15 -130 35 -98 36
-111 4 -153 -28 -35 -29 -41 -27 -129 l3 -92 -42 -11 c-63 -18 -86 -37 -115
-101 -26 -56 -43 -68 -43 -28 0 31 -15 22 -37 -25 -17 -34 -30 -47 -57 -56
-80 -26 -106 0 -82 82 22 78 48 108 94 108 66 0 105 17 131 57 18 28 21 40 13
54 -8 13 -7 21 8 34 24 22 36 98 21 132 -6 14 -36 48 -67 75 -30 28 -65 69
-76 92 -11 23 -32 56 -46 74 -29 38 -28 38 29 12 59 -27 99 -25 144 6 52 35
74 64 75 97 0 36 -17 34 -50 -4 -21 -26 -35 -32 -77 -36 -29 -3 -60 -2 -70 2
-16 6 -15 8 10 21 60 32 16 49 -108 42 -85 -6 -103 -12 -190 -66 -64 -39 -95
-48 -95 -29 0 8 10 22 23 30 12 8 39 31 60 50 35 33 37 38 37 94 0 81 29 110
126 126 38 6 71 12 73 14 7 5 -52 63 -64 63 -7 0 -20 9 -31 21 -54 60 -123 61
-173 4 -30 -35 -48 -92 -37 -120 3 -8 17 -20 30 -25 71 -27 56 -144 -22 -177
-55 -22 -81 -51 -97 -108 -18 -60 -23 -69 -52 -84 -32 -17 -78 -13 -104 8 -18
15 -23 28 -23 59 2 67 80 175 135 187 23 5 29 13 34 46 4 22 18 53 31 68 20
24 24 40 24 95 0 62 2 68 37 107 47 52 102 83 183 103 68 17 97 40 132 104 23
43 43 40 89 -10z m1931 -45 c10 -9 18 -24 18 -33 0 -31 43 -73 104 -100 l61
-28 -48 -7 c-83 -13 -167 27 -202 96 -20 37 -19 45 5 69 24 24 38 25 62 3z
m2686 -42 c73 -36 185 -77 239 -86 24 -4 52 -14 62 -23 36 -31 73 -118 78
-184 9 -105 27 -146 94 -206 64 -59 78 -78 90 -131 15 -65 -40 -151 -77 -120
-8 6 -23 31 -33 54 -23 52 -48 67 -126 74 l-60 6 -6 39 c-4 26 -16 47 -33 61
-14 11 -26 26 -26 33 0 20 25 14 50 -13 26 -27 60 -33 60 -11 0 8 -4 18 -10
21 -17 11 -11 61 12 90 17 22 21 39 19 89 -4 103 -50 163 -105 138 -28 -13
-200 -248 -193 -266 3 -7 32 -27 66 -45 74 -39 85 -57 76 -126 l-6 -52 71 -6
c84 -7 157 -43 201 -98 33 -42 42 -82 19 -86 -8 -2 -46 26 -84 62 -45 42 -77
65 -92 65 -13 0 -24 -5 -24 -11 0 -6 27 -40 60 -76 55 -59 72 -94 52 -107 -15
-9 -50 23 -93 84 -23 33 -46 60 -50 60 -4 0 5 -29 22 -64 37 -79 49 -160 25
-169 -23 -9 -38 -1 -58 31 -10 15 -45 65 -78 111 -33 46 -60 90 -60 98 0 29
21 10 69 -60 47 -71 77 -104 86 -96 2 3 -7 37 -21 78 -17 52 -40 92 -77 136
-60 73 -87 88 -148 82 l-44 -4 -43 -84 c-23 -46 -46 -105 -51 -131 -10 -55
-25 -78 -53 -78 -56 0 -81 -54 -53 -114 26 -55 58 -70 160 -76 l90 -5 0 -50
c0 -37 8 -63 29 -99 l29 -50 -27 -22 c-39 -34 -92 -41 -124 -17 -15 11 -31 33
-36 49 -22 76 -33 89 -105 128 -39 22 -77 46 -84 54 -8 10 -12 63 -13 161 -1
81 -4 156 -7 166 -12 37 6 48 62 41 l52 -7 85 76 c46 41 79 75 73 75 -6 0 -37
-6 -68 -14 -81 -20 -144 -27 -159 -18 -10 7 -10 18 0 55 11 41 10 54 -7 102
-14 42 -16 63 -9 83 19 54 124 65 247 26 30 -9 63 -14 72 -10 16 6 16 9 3 28
-8 13 -36 37 -63 55 -50 35 -95 42 -139 22 -42 -19 -73 -4 -96 47 -36 82 -24
123 40 143 21 6 43 23 52 39 53 89 99 102 196 53z m-3413 -165 c5 -33 2 -54
-14 -89 l-21 -47 20 -37 c24 -45 26 -115 4 -137 -23 -23 -34 -20 -34 12 -1 36
-61 130 -100 154 -44 26 -36 51 20 60 55 9 90 45 90 92 0 63 26 58 35 -8z
m3042 -37 c21 -43 3 -80 -52 -108 -50 -26 -121 -105 -131 -146 -8 -30 12 -65
36 -65 15 0 20 7 20 26 0 37 63 96 99 92 30 -3 31 -15 11 -138 -11 -66 -17
-79 -50 -111 -35 -33 -60 -44 -187 -78 -22 -6 -51 -20 -64 -30 -20 -16 -21
-21 -10 -34 7 -9 28 -21 47 -27 36 -12 43 -30 19 -50 -39 -33 -138 4 -151 56
-18 72 28 225 69 232 11 2 30 -7 44 -20 19 -18 36 -23 76 -23 63 0 117 21 117
45 0 14 -11 18 -57 22 -47 4 -60 10 -79 33 -28 36 -64 128 -64 165 0 24 6 30
38 41 72 23 137 62 179 106 46 50 71 53 90 12z m-487 -8 c0 -42 -37 -154 -61
-184 -19 -25 -25 -26 -94 -24 -81 2 -115 -15 -115 -58 0 -13 -7 -28 -15 -35
-12 -10 -20 -6 -46 19 -45 45 -37 91 26 147 30 27 45 48 45 65 0 23 3 24 74
26 78 2 117 16 150 52 26 29 36 26 36 -8z m-3999 -1 c28 -15 24 -40 -6 -40
-21 0 -46 9 -75 28 -8 5 24 22 43 22 10 0 27 -5 38 -10z m3189 -85 c0 -19 7
-55 15 -79 28 -81 3 -126 -80 -151 -54 -15 -97 -53 -110 -95 -8 -25 -42 -26
-49 -2 -2 9 -7 36 -11 59 -6 40 -5 42 27 58 45 23 98 75 98 97 0 9 14 31 30
48 17 17 30 39 30 50 0 32 11 50 31 50 15 0 19 -7 19 -35z m1940 -1 c28 -73
-112 -178 -179 -135 -11 7 0 26 55 85 76 83 107 95 124 50z m-3381 -47 c6 -18
12 -56 13 -84 4 -70 22 -62 26 11 3 62 21 81 49 53 14 -14 14 -22 -1 -81 -9
-36 -16 -79 -16 -96 0 -17 -6 -46 -14 -65 -31 -72 -143 -88 -160 -22 -3 12
-25 38 -50 56 -54 40 -68 72 -64 137 l3 49 51 6 c61 8 86 20 108 53 20 32 42
25 55 -17z m1872 -63 c-6 -32 -11 -82 -11 -111 0 -58 -12 -90 -42 -111 -21
-15 -48 -64 -48 -86 0 -9 16 2 39 27 32 33 42 39 52 30 22 -21 -5 -126 -50
-202 -49 -80 -65 -177 -38 -227 16 -29 16 -29 17 37 0 59 4 71 43 132 67 107
107 102 107 -12 0 -85 -22 -160 -56 -192 -34 -31 -54 -78 -54 -126 0 -66 15
-72 43 -17 14 27 41 64 61 83 30 29 38 32 51 21 17 -14 21 -70 4 -70 -7 0 -9
-9 -6 -21 6 -24 -55 -144 -81 -158 -13 -7 -14 -12 -4 -23 6 -8 15 -39 20 -69
l8 -54 31 60 c31 61 74 115 91 115 15 0 23 -29 16 -58 -9 -37 -100 -206 -120
-223 -28 -23 -54 21 -54 90 0 53 -4 62 -45 115 -24 32 -46 72 -49 89 -2 18 -9
70 -15 117 -8 67 -19 102 -51 163 -46 91 -50 126 -19 213 14 42 18 71 14 103
-6 38 -2 50 28 100 25 41 36 72 40 116 8 76 40 180 63 207 24 26 28 12 15 -58z
m-2601 3 c10 -22 24 -33 45 -38 47 -9 71 -26 84 -58 7 -17 33 -42 61 -59 58
-36 84 -73 76 -105 -7 -28 -76 -106 -82 -92 -33 75 -38 80 -128 115 -106 42
-126 66 -126 147 0 53 25 123 44 123 6 0 18 -15 26 -33z m1541 8 c26 -21 53
-30 119 -38 8 -1 16 -12 18 -25 4 -27 -47 -82 -77 -82 -11 0 -32 -5 -46 -10
-23 -9 -25 -13 -15 -25 26 -31 64 -18 117 40 28 30 58 55 67 55 42 0 -7 -106
-64 -135 -16 -8 -42 -15 -59 -15 -16 0 -42 -7 -58 -17 -51 -29 -112 3 -164 86
-50 78 -31 128 56 153 22 6 47 17 55 25 19 17 17 17 51 -12z m339 -65 c6 -12
16 -72 22 -134 11 -106 10 -115 -8 -147 -11 -19 -41 -49 -68 -66 -40 -27 -58
-33 -102 -33 -61 0 -69 12 -24 35 17 9 30 19 30 24 0 8 -111 22 -118 16 -2 -2
2 -13 8 -25 17 -32 1 -43 -67 -47 -76 -5 -90 4 -76 51 13 42 4 46 -34 16 -17
-13 -41 -20 -69 -20 -55 0 -57 -18 -4 -26 54 -9 50 -20 -10 -28 -98 -13 -165
27 -191 112 -8 30 -7 62 5 147 9 60 21 114 25 118 18 18 52 -6 97 -69 84 -118
158 -161 270 -157 81 3 117 23 168 95 82 115 116 158 126 158 5 0 14 -9 20
-20z m1105 -20 c23 -11 52 -31 64 -43 l21 -24 -21 -27 c-35 -45 -112 -77 -198
-83 -104 -8 -148 -47 -105 -95 15 -16 15 -18 1 -24 -22 -8 -57 13 -57 35 0 10
-11 26 -25 35 -42 28 -33 58 35 112 33 25 62 55 65 64 4 12 33 27 83 43 96 31
88 31 137 7z m-2597 -60 c29 -43 52 -122 52 -178 0 -36 -3 -43 -17 -40 -10 2
-28 24 -41 51 -12 26 -27 47 -32 47 -20 0 -50 41 -50 68 0 33 36 95 53 89 7
-2 22 -19 35 -37z m-1338 -10 c0 -11 -15 -37 -33 -57 -18 -21 -54 -66 -80
-100 -41 -53 -53 -63 -90 -70 -34 -7 -48 -17 -77 -56 l-35 -47 -3 31 c-3 23 5
44 27 74 17 24 31 46 31 49 0 16 -59 -19 -87 -52 -30 -34 -33 -35 -33 -14 0
64 73 137 164 162 39 11 89 35 122 59 63 45 94 52 94 21z m507 -71 c24 -22 51
-39 61 -38 40 4 52 -2 58 -28 13 -60 28 -84 73 -117 45 -32 48 -37 61 -103 12
-65 11 -74 -6 -109 -13 -27 -32 -45 -61 -59 -50 -24 -53 -31 -15 -40 58 -13
92 -60 92 -128 0 -101 -64 -160 -156 -143 -40 8 -42 16 -10 51 13 14 29 45 36
69 16 56 0 87 -76 153 -69 59 -104 116 -104 169 0 80 42 84 119 12 43 -41 56
-60 57 -82 0 -16 5 -31 11 -33 15 -5 55 85 45 101 -16 28 -90 113 -140 161
-52 50 -128 178 -117 196 11 17 27 9 72 -32z m2757 -10 c26 -18 54 -43 63 -56
24 -36 12 -119 -29 -195 -27 -51 -39 -64 -66 -72 -26 -7 -41 -22 -64 -63 -35
-63 -65 -86 -105 -81 -34 4 -46 38 -14 38 35 0 26 48 -25 133 -32 53 -44 83
-39 97 9 28 19 25 49 -15 36 -47 48 -44 31 6 -8 23 -15 50 -15 60 0 31 18 21
30 -16 16 -49 30 -34 30 31 0 30 4 54 9 54 23 0 55 -143 45 -198 -9 -45 10
-35 26 14 14 42 6 127 -16 169 -18 36 -14 40 31 25 20 -7 39 -9 42 -6 8 8 -26
44 -48 51 -19 6 -26 35 -12 48 12 13 29 7 77 -24z m-2335 -39 c33 -39 49 -50
72 -50 22 0 32 -6 39 -25 12 -31 59 -55 109 -55 56 0 81 -33 81 -110 0 -54 -3
-60 -35 -89 -20 -17 -42 -31 -50 -31 -20 0 -45 40 -45 72 0 15 -11 39 -23 54
-20 23 -35 29 -96 35 -84 9 -98 18 -107 68 -11 61 -21 67 -27 15 -4 -39 -1
-60 18 -101 27 -59 60 -84 145 -109 146 -42 201 -123 145 -211 -18 -26 -77
-47 -111 -39 -25 7 -25 8 -10 31 24 37 20 62 -14 80 -16 8 -35 15 -43 15 -27
0 -132 61 -152 87 -14 21 -20 45 -20 95 -1 53 -5 73 -23 97 -29 39 -28 72 3
101 14 13 25 34 25 46 0 47 18 74 48 74 22 0 38 -11 71 -50z m-837 -27 c51
-53 149 -213 146 -238 -2 -16 -19 -24 -82 -41 -59 -15 -82 -26 -89 -41 -5 -12
-23 -27 -39 -34 -17 -7 -40 -22 -52 -34 -46 -48 -164 -56 -125 -9 12 15 12 18
-1 22 -31 11 -70 60 -70 89 l0 28 34 -40 c27 -31 37 -37 47 -28 9 9 5 21 -20
54 -34 47 -39 70 -17 88 33 28 86 -42 86 -113 0 -20 5 -36 10 -36 6 0 10 21
10 46 0 50 15 51 25 1 11 -48 14 -50 45 -23 16 13 52 32 80 41 57 19 80 45 80
92 0 28 -8 38 -55 73 -37 28 -55 48 -55 63 0 12 -7 31 -15 41 -38 50 9 49 57
-1z m1671 23 c8 -8 18 -41 21 -73 15 -126 24 -141 44 -68 9 34 17 45 32 45 23
0 35 -37 25 -77 l-6 -28 33 33 c40 38 58 41 58 8 0 -51 -18 -76 -74 -101 -54
-24 -66 -38 -66 -81 0 -31 -33 -64 -63 -64 -36 0 -56 30 -77 111 -16 63 -26
80 -73 128 -30 31 -66 74 -81 96 -26 40 -34 75 -17 75 11 0 106 -74 116 -90
13 -22 33 -8 49 35 23 59 52 78 79 51z m3057 -14 c0 -4 -4 -12 -9 -17 -20 -22
-141 -258 -141 -276 0 -29 56 -27 66 4 17 56 54 57 54 1 0 -33 12 -45 25 -24
3 6 13 10 22 10 11 0 14 -8 11 -30 -7 -44 19 -36 55 18 31 46 38 49 61 26 24
-23 21 -29 -34 -68 -32 -23 -50 -43 -50 -56 0 -38 29 -35 74 9 44 43 72 52 83
24 4 -11 -7 -28 -38 -54 -24 -21 -52 -41 -62 -44 -9 -4 -15 -11 -11 -16 3 -6
3 -16 0 -24 -10 -28 -55 5 -96 72 -38 59 -43 63 -78 63 -74 1 -152 43 -152 82
0 10 17 37 39 61 21 23 53 71 71 107 45 89 110 168 110 132z m-4856 -41 c6 -9
-86 -91 -103 -91 -22 0 -10 19 35 59 48 42 59 47 68 32z m3941 -2 c4 -6 14
-38 21 -71 14 -59 14 -62 -8 -85 -12 -13 -48 -33 -81 -45 l-59 -21 5 -44 c4
-40 2 -45 -19 -53 -29 -11 -69 2 -78 25 -10 26 -7 104 5 146 17 54 61 103 121
133 56 28 83 32 93 15z m499 -25 c17 -44 5 -120 -27 -179 -31 -57 -38 -62
-124 -105 -50 -25 -98 -52 -107 -59 -26 -22 -20 -66 12 -89 l27 -21 -30 -11
c-37 -14 -54 -5 -77 41 -40 80 -40 78 77 193 96 94 106 107 101 133 -5 25 1
32 52 70 61 45 86 52 96 27z m-3105 -34 c5 -16 14 -30 19 -30 22 0 52 -43 52
-75 0 -19 5 -37 10 -40 6 -4 10 11 10 39 0 41 13 66 27 52 4 -3 10 -32 14 -63
11 -78 -4 -189 -30 -224 -15 -21 -21 -43 -21 -83 0 -48 -3 -58 -25 -72 -13 -9
-33 -39 -44 -67 -10 -29 -26 -53 -35 -55 -14 -3 -16 8 -16 70 0 56 -7 87 -26
133 -40 92 -41 103 -10 111 32 8 51 -6 77 -58 25 -49 39 -41 39 24 0 44 -5 56
-36 91 -34 37 -36 42 -32 95 4 43 1 64 -13 87 -22 35 -24 66 -7 83 20 20 35
14 47 -18z m-1285 1 c7 -10 -26 -40 -76 -70 -24 -14 -39 -18 -43 -11 -12 20 3
39 52 64 54 28 60 30 67 17z m-200 -9 c5 -9 -50 -112 -61 -112 -10 0 4 89 17
105 14 16 36 20 44 7z m278 -49 c39 -46 24 -81 -18 -42 -26 24 -32 59 -11 59
8 0 21 -8 29 -17z m4772 -4 c28 -22 51 -57 42 -66 -3 -3 -21 8 -41 26 -20 17
-42 31 -50 31 -8 0 -15 7 -15 15 0 21 33 18 64 -6z m-4834 -76 c0 -14 -18 -17
-44 -7 -19 7 -21 40 -3 47 15 5 47 -21 47 -40z m2945 -27 c9 -13 19 -40 22
-60 5 -30 3 -36 -12 -36 -12 0 -15 -5 -10 -17 15 -37 17 -94 5 -122 -16 -39
-94 -89 -152 -97 -53 -7 -67 5 -44 38 20 28 21 90 2 126 -40 80 -25 94 37 35
l40 -38 -7 58 c-3 31 -3 57 1 57 5 0 20 -14 35 -32 14 -18 30 -30 33 -26 4 4
10 36 12 72 3 36 10 66 14 66 5 0 16 -11 24 -24z m-1021 -22 c9 -8 16 -24 16
-35 0 -26 16 -24 36 6 20 31 34 24 35 -18 0 -18 4 -40 8 -50 6 -16 10 -15 34
12 15 17 32 31 37 31 6 0 10 -21 10 -47 l0 -48 30 53 c17 28 35 52 40 52 16 0
11 -36 -9 -61 -38 -49 -49 -83 -42 -124 10 -56 4 -71 -30 -85 -24 -11 -35 -10
-55 1 -46 24 -72 56 -84 100 -15 58 -36 89 -60 89 -41 0 -55 85 -20 120 24 24
34 25 54 4z m2046 -12 c45 -36 3 -104 -99 -162 -59 -34 -61 -36 -61 -76 0 -27
-7 -48 -21 -63 -20 -21 -22 -21 -39 -6 -26 24 -42 68 -38 106 2 27 13 41 51
69 42 31 47 39 47 73 0 35 3 39 43 57 54 24 89 25 117 2z m-3770 -42 c0 -14
-35 -30 -67 -30 -34 0 -68 -21 -148 -89 -58 -50 -85 -63 -85 -39 0 16 109 122
152 148 35 21 148 29 148 10z m2037 -62 l9 -43 17 33 c22 40 37 41 37 2 0 -41
16 -38 67 12 49 48 54 41 17 -25 -34 -61 -30 -97 13 -117 18 -8 33 -20 33 -26
0 -7 -25 -24 -55 -39 l-54 -28 -58 29 c-72 36 -85 59 -81 145 5 97 38 132 55
57z m321 31 c18 -6 41 -26 54 -47 l22 -35 10 44 c21 85 66 36 74 -79 5 -78 -6
-93 -90 -117 -51 -14 -68 -15 -105 -5 -24 7 -46 17 -49 22 -3 4 11 27 30 50
44 51 45 77 6 121 -16 19 -30 40 -30 46 0 14 38 14 78 0z m-1717 -73 c36 -32
60 -46 86 -48 20 -2 39 -10 43 -18 7 -16 43 -87 66 -130 19 -37 3 -98 -36
-132 -34 -32 -64 -35 -117 -13 -63 26 -58 -12 6 -44 70 -36 111 -135 76 -187
-21 -32 -72 -54 -124 -54 -38 0 -68 -19 -42 -28 7 -2 35 -27 63 -56 45 -46 49
-55 44 -85 -7 -45 -40 -79 -104 -108 l-54 -24 41 -44 c45 -48 51 -77 26 -125
-20 -38 -60 -68 -101 -76 -42 -8 -43 -20 -3 -42 64 -35 89 -62 89 -96 0 -39
-35 -94 -72 -115 -36 -20 -41 -12 -27 41 7 24 9 55 6 69 -8 29 -58 63 -116 79
-72 19 -114 112 -75 168 25 36 59 28 86 -20 33 -59 52 -68 80 -40 16 16 23 34
23 63 0 36 -6 45 -57 90 -67 58 -87 103 -66 146 11 22 20 28 43 26 16 -1 42
-11 57 -23 52 -38 99 -19 98 42 -1 31 -12 44 -97 111 -40 32 -73 62 -73 68 0
32 55 99 81 99 9 0 28 -13 41 -29 47 -56 88 -65 107 -24 11 25 9 29 -63 97
-92 88 -102 106 -82 145 16 29 72 71 96 71 7 0 28 -11 46 -25 40 -31 62 -32
73 -2 13 33 -3 53 -65 82 -44 21 -59 34 -71 63 -21 51 -29 138 -13 157 19 22
27 19 81 -29z m773 -18 c34 -52 31 -74 -17 -125 -24 -26 -50 -59 -57 -72 l-13
-25 -23 28 c-37 42 -40 70 -12 108 13 18 37 50 52 71 31 43 49 46 70 15z m851
-23 c0 -10 -6 -20 -12 -22 -8 -3 -13 5 -13 22 0 17 5 25 13 23 6 -3 12 -13 12
-23z m1870 -4 c7 -23 -8 -63 -40 -105 -34 -44 -34 -104 -1 -143 25 -29 37 -27
88 9 29 21 43 -5 44 -82 2 -100 1 -96 35 -135 29 -33 30 -35 9 -35 -12 0 -46
23 -78 52 -31 29 -59 54 -62 56 -3 2 10 16 28 30 18 15 32 35 32 45 0 16 -6
17 -44 12 -107 -16 -175 75 -146 197 16 64 61 118 100 118 19 0 31 -6 35 -19z
m-1029 -68 c32 -73 29 -98 -10 -98 -24 0 -31 6 -42 35 -14 38 -18 103 -7 113
17 18 35 2 59 -50z m-2801 3 c25 -24 45 -49 45 -55 0 -6 -16 -11 -35 -11 -31
0 -35 -3 -35 -25 0 -17 14 -38 41 -63 124 -111 122 -108 117 -156 -5 -42 -11
-53 -49 -96 -17 -18 -110 -37 -129 -25 -5 3 -10 1 -10 -5 0 -5 25 -26 56 -46
55 -35 84 -78 84 -122 0 -10 -15 -35 -33 -55 -38 -44 -77 -48 -144 -17 -77 34
-66 -14 17 -75 64 -47 75 -66 60 -109 -12 -38 -44 -71 -80 -81 -54 -16 -64
-44 -29 -81 16 -18 19 -26 10 -42 -22 -42 -101 -92 -101 -64 0 4 11 23 25 42
13 18 21 38 18 44 -24 41 -53 71 -95 97 -37 24 -49 38 -54 66 -7 35 16 103 34
103 17 0 47 -43 62 -88 18 -57 46 -66 85 -28 31 31 32 56 2 93 -13 15 -27 40
-30 54 -4 14 -25 46 -47 71 -45 51 -60 85 -60 132 0 69 44 74 97 10 69 -84 83
-95 106 -92 17 2 23 11 25 35 3 27 -6 43 -48 93 -64 78 -92 133 -88 173 5 48
31 46 90 -8 41 -37 57 -45 81 -43 24 2 32 9 39 33 7 26 3 33 -34 65 -122 106
-120 103 -125 156 -3 32 1 62 11 87 18 40 49 77 66 77 6 0 31 -20 55 -44z
m3495 -3 c34 -44 24 -74 -38 -103 -49 -23 -92 -69 -92 -98 0 -23 29 -24 59 -3
16 12 44 21 63 21 18 0 57 11 86 25 68 32 82 32 82 0 0 -44 -28 -83 -87 -122
-71 -48 -94 -79 -100 -135 -4 -34 -1 -49 13 -62 17 -18 19 -18 36 4 10 12 18
30 18 39 0 31 29 58 75 70 29 7 51 20 61 37 12 18 24 24 43 22 22 -3 26 -9 29
-39 3 -32 -3 -42 -62 -99 -76 -74 -93 -107 -80 -158 7 -28 15 -38 33 -40 40
-6 71 7 71 29 0 58 82 149 135 149 31 0 65 -36 65 -68 0 -33 -22 -61 -73 -94
-43 -29 -87 -84 -87 -109 0 -53 -37 -68 -46 -19 -6 28 -9 30 -54 30 -57 0 -75
17 -114 113 -27 63 -43 83 -111 130 -31 22 -45 54 -49 117 -3 33 -16 67 -45
115 -64 106 -64 160 -3 218 67 62 137 74 172 30z m-2820 -64 c0 -45 5 -58 40
-101 42 -53 51 -96 25 -118 -8 -6 -26 -32 -39 -56 -21 -37 -24 -53 -19 -95 5
-41 2 -55 -15 -78 -29 -40 -41 -93 -35 -155 4 -43 1 -64 -16 -98 -11 -25 -21
-53 -21 -64 -1 -62 -33 -88 -75 -60 -32 21 -31 36 0 66 38 36 33 77 -15 138
-22 27 -40 57 -40 66 0 21 31 36 79 36 48 0 71 8 71 25 0 7 -20 39 -44 72 -51
69 -76 115 -76 142 0 22 35 51 62 51 16 0 20 -7 32 -62 8 -33 40 -38 56 -9 8
16 5 25 -15 45 -24 24 -25 31 -25 133 0 90 3 113 20 141 30 50 50 42 50 -19z
m645 -19 c4 -19 -1 -45 -14 -75 -11 -25 -21 -45 -23 -45 -2 0 -41 -16 -87 -35
-46 -19 -88 -32 -94 -28 -16 10 0 83 24 109 12 13 41 33 64 44 23 11 54 33 70
50 32 34 49 28 60 -20z m1293 28 c7 -7 12 -29 12 -50 0 -49 -35 -88 -80 -88
-28 0 -31 3 -25 23 10 30 10 28 1 65 -5 22 -4 38 4 47 15 18 71 20 88 3z
m-1708 -43 c8 -10 10 -29 7 -52 -13 -76 -67 -86 -67 -13 0 69 30 101 60 65z
m701 -35 c46 -25 14 -88 -86 -170 -59 -48 -77 -69 -85 -100 -9 -35 -15 -40
-39 -40 -41 0 -55 22 -48 75 12 81 78 188 142 226 33 21 86 25 116 9z m1281
-80 c54 -52 62 -86 28 -120 -31 -31 -68 -26 -88 12 -9 17 -32 47 -49 65 -22
22 -33 43 -33 63 0 64 64 56 142 -20z m-760 44 c5 -3 33 -43 62 -88 30 -46 68
-93 85 -105 46 -33 64 -75 59 -133 -6 -57 -30 -88 -69 -88 -36 0 -44 14 -25
42 21 30 20 71 -1 96 -10 10 -44 29 -76 42 -61 24 -100 61 -124 120 -8 19 -24
52 -34 72 -10 20 -19 39 -19 42 0 14 119 14 142 0z m251 -8 c12 -13 33 -36 46
-50 13 -15 43 -37 65 -48 65 -33 103 -65 115 -99 10 -29 8 -34 -24 -66 -45
-45 -68 -41 -76 14 -7 55 -21 69 -82 87 -130 38 -210 186 -101 186 24 0 42 -7
57 -24z m-505 2 c25 -25 6 -119 -34 -167 -14 -16 -58 -46 -99 -65 -40 -19 -79
-44 -84 -55 -14 -26 -14 -67 0 -93 11 -20 9 -21 -22 -14 -18 3 -43 16 -55 27
-40 37 -36 68 20 169 8 14 23 45 33 70 22 53 56 96 98 121 34 22 124 26 143 7z
m860 -75 c36 -27 62 -71 62 -104 0 -11 -15 -36 -34 -55 -26 -26 -42 -34 -70
-34 -42 0 -43 3 -16 37 30 39 25 65 -20 106 -46 41 -48 50 -18 71 26 19 50 13
96 -21z m-1724 -42 c26 -28 17 -51 -34 -88 -25 -19 -54 -42 -66 -53 -26 -24
-44 -10 -44 36 0 23 11 43 43 78 47 50 74 57 101 27z m-179 -41 c14 -45 -37
-142 -67 -124 -10 6 -11 128 -1 137 15 16 62 7 68 -13z m2453 -24 c8 -15 11
-38 8 -51 -8 -30 -98 -145 -111 -141 -5 1 -14 19 -19 39 -11 43 11 101 58 155
33 37 45 37 64 -2z m-1220 -57 c54 -46 81 -78 108 -129 30 -58 42 -71 77 -85
84 -33 97 -70 50 -143 -34 -53 -79 -77 -108 -58 -16 11 -20 25 -20 66 0 47 -3
55 -35 82 -19 16 -76 50 -127 74 -74 36 -94 52 -107 79 -25 53 -21 74 19 91
28 11 35 20 35 42 0 60 19 56 108 -19z m-801 12 c13 -19 23 -42 23 -52 0 -11
-31 -38 -85 -74 -87 -57 -110 -83 -102 -116 8 -28 -18 -23 -43 8 -36 45 -15
122 53 200 40 45 86 74 112 71 10 -2 30 -18 42 -37z m1666 8 c30 -13 67 -77
67 -114 0 -37 -50 -85 -89 -85 -16 0 -33 5 -36 10 -3 6 -1 10 5 10 6 0 15 10
19 23 7 18 3 27 -20 49 -38 35 -41 94 -6 108 30 12 32 12 60 -1z m-472 -47
c15 -9 67 -58 118 -108 82 -83 91 -95 91 -129 0 -55 -44 -95 -104 -95 -25 0
-46 2 -46 4 0 2 7 19 15 39 13 32 13 37 -6 61 -11 14 -47 42 -80 63 -55 33
-60 39 -54 62 4 14 9 47 12 74 5 51 14 56 54 29z m-588 -54 c22 -26 22 -96 1
-127 -9 -13 -41 -34 -71 -47 -55 -25 -92 -57 -124 -108 -16 -27 -16 -33 -3
-64 21 -52 18 -62 -20 -62 -53 0 -106 71 -106 144 0 35 32 78 68 93 54 22 90
60 97 103 14 83 109 124 158 68z m928 -27 c19 -19 29 -40 29 -58 0 -42 -27
-128 -45 -143 -13 -11 -15 -6 -15 33 0 43 -2 47 -42 69 -23 13 -49 35 -57 49
-13 24 -13 29 2 53 26 38 88 37 128 -3z m-1341 4 c47 -24 41 -66 -15 -120 -50
-49 -63 -85 -47 -129 15 -39 9 -43 -33 -23 -95 45 -90 208 9 268 38 23 48 23
86 4z m1904 -17 c22 -32 21 -36 -29 -115 -59 -92 -65 -124 -32 -157 51 -51 81
-30 118 82 12 35 28 66 37 69 21 9 52 -32 52 -69 0 -48 -50 -181 -77 -204 -23
-20 -24 -25 -17 -92 7 -76 3 -82 -34 -56 -40 28 -55 70 -48 138 l7 61 -50 43
c-76 64 -88 133 -41 238 35 80 84 106 114 62z m-2560 -4 c9 -24 -16 -69 -42
-72 -16 -3 -22 2 -22 17 0 54 48 95 64 55z m151 -74 c0 -45 -6 -64 -34 -108
-19 -29 -39 -51 -45 -49 -13 4 -20 79 -11 124 7 40 52 95 74 91 12 -3 16 -16
16 -58z m2214 41 c11 -7 12 -21 6 -63 -4 -29 -10 -77 -14 -107 l-6 -53 -25 20
c-22 18 -25 28 -25 89 0 49 5 77 18 96 19 29 25 31 46 18z m844 -55 c11 -67
-10 -118 -86 -208 -30 -36 -38 -53 -33 -71 11 -47 33 -39 82 27 54 74 85 96
109 76 17 -14 20 -56 6 -92 -5 -13 -27 -36 -50 -51 -48 -32 -74 -76 -65 -112
4 -18 2 -25 -7 -25 -25 0 -37 15 -44 51 -4 24 -15 41 -35 52 -48 29 -90 84
-90 120 0 34 47 115 99 172 15 17 38 45 50 63 30 43 57 42 64 -2z m-1554 -85
c41 -79 81 -123 123 -137 31 -9 38 -22 38 -71 0 -50 -38 -103 -75 -103 -25 0
-35 17 -35 61 0 46 -16 67 -60 80 -22 7 -45 18 -51 25 -15 18 -32 168 -24 210
5 29 9 33 24 24 10 -5 37 -45 60 -89z m547 25 c39 -33 39 -89 0 -123 -33 -28
-60 -27 -64 3 -2 12 -14 32 -28 45 -30 28 -31 63 -2 83 32 22 62 20 94 -8z
m-991 -25 c3 -11 26 -26 57 -37 44 -16 59 -29 95 -80 30 -44 54 -66 80 -77 56
-22 85 -58 81 -98 -2 -28 -12 -40 -52 -66 -75 -51 -131 -37 -92 22 41 62 2
122 -87 134 -64 9 -100 31 -134 81 -29 41 -29 79 -2 114 24 31 45 34 54 7z
m-1224 -12 c12 -23 8 -65 -11 -114 -11 -29 -12 -29 -26 -11 -9 12 -14 44 -14
83 0 56 2 63 20 63 10 0 24 -10 31 -21z m444 -42 c16 -31 16 -35 1 -65 -9 -17
-37 -48 -62 -69 -43 -36 -45 -41 -42 -83 3 -52 -14 -63 -52 -32 -18 14 -24 31
-27 73 -5 64 18 108 71 140 19 11 42 31 50 45 22 33 39 30 61 -9z m1575 -33
c42 -36 61 -76 54 -113 -7 -33 -45 -81 -66 -81 -9 0 -9 3 0 12 23 23 12 45
-37 76 -27 16 -57 42 -66 56 -16 24 -16 28 -1 51 23 35 74 34 116 -1z m-889
-44 c3 -31 11 -65 17 -77 18 -34 70 -72 114 -83 49 -14 88 -50 88 -83 0 -32
45 -72 105 -94 45 -17 50 -22 53 -52 5 -53 -6 -80 -41 -101 -50 -31 -59 -27
-52 23 6 37 3 48 -19 74 -26 31 -74 57 -161 90 -44 16 -53 24 -75 70 -14 28
-33 60 -43 70 -9 11 -17 27 -17 36 0 9 -11 29 -25 44 l-24 28 -1 -49 c0 -46
-3 -51 -51 -95 -58 -53 -79 -87 -79 -131 0 -67 -38 -90 -77 -47 -37 41 -37 45
2 215 4 14 19 29 40 38 48 20 71 57 56 90 -6 14 -11 31 -11 38 0 18 52 36 106
36 24 0 46 5 49 11 4 5 14 9 23 7 13 -2 19 -18 23 -58z m-429 3 c9 -16 21 -47
27 -70 15 -56 1 -84 -65 -128 -67 -44 -74 -57 -61 -107 18 -72 -33 -77 -79 -8
-30 45 -35 101 -12 127 8 10 19 35 22 56 5 29 16 43 46 62 21 13 51 40 65 60
15 19 30 35 34 35 4 0 14 -12 23 -27z m2163 2 c51 -50 16 -181 -65 -245 -47
-37 -53 -65 -34 -159 9 -40 13 -75 10 -78 -2 -2 -15 28 -27 69 -13 40 -34 86
-46 101 -13 16 -23 36 -23 45 0 17 87 203 122 260 24 38 31 39 63 7z m-578 -5
l26 -20 33 21 c42 25 78 22 82 -8 2 -12 -12 -45 -33 -77 -43 -64 -43 -99 0
-40 30 41 54 64 66 64 21 0 40 -35 37 -69 -1 -22 5 -47 15 -61 22 -31 22 -111
1 -153 -9 -18 -39 -52 -66 -76 -47 -42 -50 -47 -46 -85 3 -23 8 -49 12 -58 14
-32 -23 -20 -43 13 -44 72 -33 184 25 266 38 54 59 106 50 128 -10 26 -24 16
-31 -22 -10 -54 -23 -73 -49 -73 -40 0 -58 33 -67 122 -4 46 -8 84 -8 85 -1 1
-15 10 -32 18 -25 13 -28 19 -18 31 15 18 16 18 46 -6z m-2102 -40 c8 -38 -15
-77 -107 -185 -14 -16 -28 15 -28 61 0 31 10 56 39 101 53 82 82 89 96 23z
m-496 -42 c15 -35 35 -69 44 -77 28 -23 21 -69 -17 -107 -30 -30 -40 -34 -87
-34 -69 0 -103 17 -107 53 -4 35 19 36 60 2 37 -31 54 -31 79 -2 27 33 23 64
-16 110 -38 44 -44 77 -19 101 25 26 33 19 63 -46z m1954 -7 c41 -43 57 -67
57 -88 1 -20 11 -36 37 -55 20 -16 44 -28 54 -28 26 0 49 -39 49 -81 0 -45
-44 -109 -91 -132 -37 -18 -61 -8 -40 17 18 21 17 71 -2 100 -9 13 -41 46 -72
72 -59 51 -67 74 -34 97 13 10 17 17 10 22 -18 11 -63 106 -57 121 10 26 33
14 89 -45z m566 15 c23 -18 50 -88 57 -147 7 -62 -7 -126 -36 -161 l-19 -23 6
76 c7 87 -1 129 -23 129 -8 0 -24 21 -35 47 -11 26 -25 51 -32 55 -8 5 -6 13
8 28 19 21 45 20 74 -4z m-2386 -17 c11 -18 2 -69 -13 -69 -17 0 -50 34 -50
50 0 38 43 51 63 19z m164 -48 c5 -34 3 -41 -11 -41 -25 0 -54 18 -66 40 -9
17 -6 25 15 46 24 24 28 25 42 12 8 -9 17 -34 20 -57z m1978 -61 c3 -11 4 -28
1 -38 -5 -13 5 -28 34 -51 33 -26 40 -38 40 -67 0 -73 -37 -98 -59 -39 -6 19
-37 56 -67 83 -52 47 -54 50 -44 78 18 46 49 75 71 64 10 -6 21 -19 24 -30z
m-3011 -56 c20 -30 44 -58 52 -61 21 -8 64 -85 64 -115 0 -45 -86 -99 -113
-72 -3 4 3 19 15 34 26 36 19 68 -28 126 -35 42 -54 89 -54 131 0 34 23 19 64
-43z m4063 -11 c4 -43 1 -52 -32 -95 -31 -40 -38 -56 -42 -110 -2 -35 -7 -70
-9 -78 -8 -22 -42 37 -55 95 -13 59 4 113 65 209 34 52 40 57 53 43 9 -9 18
-37 20 -64z m-2602 0 c25 -25 12 -88 -31 -142 -43 -56 -41 -74 11 -81 37 -5
40 -7 43 -40 7 -71 -7 -118 -49 -163 -38 -39 -42 -41 -54 -24 -7 10 -16 34
-20 53 -6 33 -3 38 40 76 36 32 43 43 34 54 -6 8 -23 14 -38 14 -15 0 -32 5
-39 12 -28 28 -3 178 39 232 24 30 41 33 64 9z m-190 -17 c18 -13 17 -15 -10
-62 -15 -26 -46 -67 -68 -91 -45 -49 -67 -45 -67 13 0 48 16 83 56 121 38 36
60 41 89 19z m1899 -16 c50 -19 79 -128 41 -156 -28 -21 -45 0 -45 55 -1 25
-7 57 -15 71 -24 42 -21 46 19 30z m-2292 -17 c21 -25 30 -70 19 -92 -12 -22
-45 -33 -59 -19 -20 20 -39 2 -34 -31 4 -31 -39 -121 -58 -121 -6 0 -10 19
-10 43 0 54 -19 81 -76 106 -32 14 -45 26 -42 37 6 31 33 39 85 26 60 -16 76
-10 104 34 23 37 48 43 71 17z m153 -24 c10 -31 -20 -119 -40 -119 -17 0 -35
44 -35 85 0 56 60 83 75 34z m737 -20 c10 -19 18 -56 18 -85 0 -60 -11 -72
-112 -128 -64 -35 -67 -36 -78 -17 -20 38 -11 70 34 126 25 30 57 75 72 100
14 25 31 44 38 42 6 -2 19 -19 28 -38z m919 -41 c25 -49 62 -102 91 -130 55
-53 62 -89 26 -128 l-23 -25 -3 40 c-4 50 -30 78 -103 116 -31 15 -59 35 -63
44 -8 22 -8 150 1 158 17 18 34 1 74 -75z m1523 57 c9 -13 16 -43 16 -67 0
-39 -5 -47 -60 -99 -68 -64 -74 -86 -30 -122 38 -32 38 -44 1 -49 -51 -7 -84
36 -83 108 1 54 22 96 79 156 35 39 42 52 37 73 -8 34 18 34 40 0z m-1924 -58
c116 -80 140 -110 124 -154 -20 -57 -98 -33 -175 55 -23 26 -29 41 -24 59 4
17 -1 33 -20 54 -24 29 -33 60 -17 59 4 -1 54 -33 112 -73z m-2015 39 c8 -13
13 -30 9 -39 -4 -11 15 -36 59 -79 81 -79 100 -128 70 -180 -14 -24 -27 -34
-48 -36 -72 -6 -72 -7 -67 -64 3 -46 1 -57 -22 -80 -17 -20 -35 -28 -57 -28
l-33 0 32 33 c54 56 45 82 -53 151 -43 30 -66 106 -33 106 6 0 30 -18 54 -40
37 -34 50 -40 88 -40 87 0 103 63 28 113 -24 16 -52 43 -63 60 -20 34 -35 108
-25 132 8 23 44 18 61 -9z m1861 -22 c9 -20 13 -47 10 -60 -8 -32 -57 -86
-117 -130 -33 -24 -49 -43 -49 -58 0 -31 -22 -58 -41 -51 -38 14 -52 112 -23
153 8 12 37 33 63 47 48 24 61 40 61 76 0 25 35 59 61 59 14 0 25 -11 35 -36z
m1548 -18 c25 -53 19 -76 -34 -145 -57 -72 -67 -123 -30 -156 26 -24 25 -35
-3 -35 -13 0 -36 14 -53 31 -26 27 -29 38 -32 108 -3 56 0 86 11 107 16 30
105 124 118 124 4 0 14 -15 23 -34z m-691 -97 c37 -19 77 -62 77 -82 0 -32
-20 -57 -46 -57 -19 0 -26 6 -30 29 -5 26 -11 30 -43 33 -32 3 -36 7 -39 33
-6 46 35 68 81 44z m-2115 -21 c42 -46 57 -143 26 -169 -29 -23 -50 1 -46 55
3 34 -2 55 -18 81 -33 53 -4 77 38 33z m427 -78 c-12 -88 -75 -130 -111 -75
-16 24 -16 28 0 63 10 21 31 53 48 71 31 33 31 33 50 13 17 -17 19 -27 13 -72z
m2081 45 c20 -50 17 -89 -10 -130 -13 -19 -27 -54 -31 -78 -11 -71 -25 -107
-43 -107 -9 0 -31 -17 -48 -37 -27 -33 -34 -36 -48 -24 -9 8 -16 29 -16 51 0
31 9 48 54 98 52 59 54 62 45 99 -5 21 -9 47 -9 59 0 21 64 104 81 104 6 0 17
-16 25 -35z m-201 -8 c37 -31 45 -97 16 -126 -31 -31 -41 -26 -41 23 0 29 -7
52 -21 70 -39 49 -3 75 46 33z m623 1 c25 -25 13 -79 -29 -145 -40 -61 -42
-66 -36 -126 3 -34 9 -72 13 -84 10 -36 -20 -28 -55 14 -39 48 -58 126 -42
175 7 21 35 57 66 87 32 29 55 59 55 71 0 23 10 26 28 8z m-3166 -66 c65 -65
68 -71 68 -116 0 -59 -17 -92 -69 -134 -33 -27 -41 -39 -41 -67 0 -39 -37 -75
-76 -75 -28 0 -28 0 -9 36 18 36 10 70 -27 112 -31 36 -36 73 -12 93 14 11 21
7 54 -29 22 -23 46 -42 55 -42 16 0 55 34 55 49 0 5 3 16 6 24 5 13 -14 40
-107 149 -36 43 -33 68 7 68 20 0 45 -18 96 -68z m1151 -35 l-6 -58 -53 -26
c-44 -22 -55 -34 -69 -69 -12 -33 -14 -51 -6 -78 18 -67 -23 -47 -54 27 -23
55 -19 67 37 120 45 42 53 56 58 94 4 41 8 47 40 57 49 17 59 5 53 -67z m419
75 c2 -4 47 -39 100 -76 106 -73 116 -89 101 -153 -12 -50 -39 -54 -87 -13
-39 35 -43 49 -23 81 10 18 9 23 -13 40 -57 45 -71 59 -65 69 3 5 2 10 -4 10
-5 0 -11 -12 -13 -27 -2 -22 -11 -29 -53 -42 -45 -14 -53 -21 -77 -70 -21 -41
-28 -69 -28 -113 0 -32 -4 -58 -10 -58 -18 0 -78 60 -91 92 -12 29 -11 33 10
47 66 47 75 58 80 105 6 47 7 48 56 64 28 10 61 25 75 35 27 19 37 21 42 9z
m-1125 -17 c25 -17 49 -85 40 -109 -10 -25 -43 -19 -70 14 -36 43 -42 68 -21
91 21 23 24 23 51 4z m1561 -5 c36 -22 52 -54 52 -105 0 -22 11 -50 31 -79 41
-57 49 -121 21 -156 l-20 -25 -37 40 c-62 68 -77 106 -74 196 3 69 0 81 -19
102 -44 46 -15 64 46 27z m-121 -35 c26 -18 38 -67 23 -95 -9 -16 -15 -18 -30
-10 -11 6 -20 16 -20 23 0 7 -9 29 -19 49 -11 19 -17 39 -14 42 11 11 38 7 60
-9z m967 -51 c13 -34 5 -77 -19 -106 -20 -24 -25 -40 -25 -88 0 -39 5 -62 15
-70 8 -7 15 -16 15 -21 0 -19 -28 -7 -60 26 -46 47 -44 84 10 191 41 85 53 97
64 68z m498 -35 c-5 -46 -27 -86 -78 -141 -24 -26 -44 -54 -44 -62 0 -8 12
-29 26 -46 31 -36 22 -57 -20 -46 -51 13 -72 104 -40 171 8 18 36 47 61 65 25
18 52 48 60 67 18 43 39 38 35 -8z m-1023 5 c39 -50 21 -177 -29 -204 -25 -13
-39 -5 -22 12 18 18 14 84 -8 128 -23 45 -25 61 -8 78 19 19 45 14 67 -14z
m-2098 -36 c34 -38 36 -53 9 -93 -11 -16 -20 -40 -20 -52 0 -15 -12 -27 -43
-42 -79 -38 -96 -24 -51 42 23 35 25 44 19 99 -6 46 -4 62 6 69 26 16 50 9 80
-23z m429 -20 c16 -27 17 -35 6 -57 -7 -14 -16 -45 -19 -69 -7 -58 -14 -62
-43 -29 -24 28 -35 97 -15 97 5 0 12 17 16 37 12 65 25 70 55 21z m207 16 c4
-10 -8 -42 -27 -76 -28 -52 -32 -66 -27 -109 5 -36 3 -49 -7 -49 -22 0 -47 37
-53 79 -8 60 3 91 37 103 18 6 30 17 30 27 0 18 18 41 32 41 5 0 11 -7 15 -16z
m1631 -63 c2 -23 -3 -43 -17 -62 -12 -16 -21 -33 -21 -39 0 -5 -6 -10 -13 -10
-23 0 -37 23 -37 61 0 78 81 124 88 50z m-1295 -10 c9 -44 -6 -82 -51 -126
-51 -52 -71 -115 -47 -151 14 -22 14 -25 -1 -31 -29 -11 -81 23 -94 62 -16 48
-8 75 40 130 22 25 40 55 40 65 0 21 67 80 91 80 10 0 19 -11 22 -29z m-814
-33 c6 -17 9 -46 5 -64 -5 -28 1 -40 41 -90 45 -54 47 -60 39 -98 -23 -118 11
-487 67 -728 29 -124 29 -129 15 -195 -8 -37 -14 -95 -13 -128 2 -58 0 -63
-47 -125 -58 -77 -60 -84 -75 -179 -12 -75 -47 -171 -62 -171 -5 0 -9 34 -9
76 0 41 -4 73 -9 70 -5 -3 -14 -36 -21 -73 -7 -38 -25 -101 -41 -141 -22 -56
-29 -90 -29 -141 0 -63 -3 -72 -35 -112 -24 -30 -35 -54 -35 -77 0 -45 -27
-94 -98 -177 -33 -38 -58 -74 -55 -78 7 -12 43 2 88 35 48 34 57 22 22 -31
-27 -41 -57 -56 -129 -66 -31 -4 -64 -19 -100 -44 -29 -21 -69 -42 -88 -46
-19 -4 -42 -14 -52 -22 -23 -20 -30 -2 -19 48 6 28 6 49 0 61 -12 23 -29 14
-29 -16 0 -47 -44 -62 -61 -20 -20 53 21 104 83 104 45 0 47 11 13 52 -28 33
-32 74 -11 103 13 18 18 19 60 7 178 -47 270 33 282 248 6 92 -8 95 -21 3 -9
-68 -59 -150 -80 -133 -20 17 -19 55 5 118 21 56 26 117 10 142 -18 29 -34 -8
-46 -112 -15 -121 -27 -150 -63 -146 -37 4 -37 26 4 168 35 125 43 184 26 195
-16 9 -24 -15 -38 -113 -13 -98 -18 -112 -35 -112 -15 0 -2 147 23 251 11 46
22 113 25 149 3 36 16 94 29 130 108 302 121 400 85 655 -23 165 -40 395 -33
445 7 46 18 58 59 66 46 8 80 37 94 79 8 24 29 47 74 79 80 57 84 62 96 127
16 85 64 100 89 27z m124 35 c3 -5 8 -34 11 -65 6 -48 5 -58 -8 -58 -33 0 -57
69 -40 114 6 17 30 22 37 9z m1006 -110 c-13 -27 -49 -75 -80 -108 -47 -49
-58 -67 -61 -99 -4 -53 -30 -69 -60 -38 -17 17 -22 33 -22 74 0 69 21 100 87
127 77 32 80 34 112 89 29 49 30 50 38 27 6 -18 2 -38 -14 -72z m699 74 c21
-25 25 -66 8 -73 -23 -9 -46 14 -46 46 0 39 17 52 38 27z m-349 -18 c55 -51
50 -116 -11 -155 -63 -40 -68 -34 -71 79 l-3 97 31 0 c18 0 41 -9 54 -21z
m-208 -44 c49 -30 79 -67 79 -95 0 -5 -12 -16 -27 -23 l-27 -15 33 -16 c57
-30 30 -78 -34 -62 -41 10 -75 67 -86 143 -5 37 -12 76 -15 86 -8 26 15 21 77
-18z m1049 -22 c23 -40 19 -65 -13 -71 -39 -8 -74 67 -45 96 20 20 35 14 58
-25z m287 21 c4 -11 -9 -31 -41 -61 -25 -25 -46 -55 -46 -66 0 -52 62 -72 133
-42 40 17 114 20 136 6 12 -8 12 -13 -2 -33 -10 -13 -29 -40 -44 -61 l-26 -38
21 -29 c40 -54 23 -86 -31 -59 -55 28 -71 79 -37 122 11 14 20 28 20 31 0 3
-31 6 -69 6 -60 0 -74 3 -100 26 -26 22 -31 33 -31 71 0 50 11 75 48 116 29
30 59 35 69 11z m-999 -6 c19 -25 24 -58 8 -58 -21 0 -46 28 -46 51 0 21 22
25 38 7z m-2224 -40 c22 -31 22 -146 0 -176 -19 -28 -71 -27 -88 1 -9 15 -6
23 22 45 35 30 40 48 17 78 -15 20 -20 56 -8 67 13 14 42 6 57 -15z m268 -5
c26 -23 24 -78 -4 -97 -20 -14 -88 -23 -88 -11 0 2 11 21 25 41 14 21 28 48
31 61 7 27 12 28 36 6z m2522 -54 c7 -16 36 -46 66 -66 30 -21 69 -58 88 -83
19 -25 60 -65 91 -90 49 -40 59 -54 79 -115 14 -41 27 -113 33 -180 27 -325
27 -339 12 -371 -10 -22 -13 -60 -12 -125 2 -52 -3 -161 -9 -244 -12 -147 -8
-338 9 -382 4 -12 15 -75 24 -140 21 -150 59 -236 120 -271 22 -12 53 -21 69
-20 24 3 33 -3 48 -29 10 -17 21 -54 25 -83 7 -62 31 -93 102 -135 57 -34 72
-64 50 -104 -23 -40 -38 -37 -45 9 -5 32 -13 44 -32 51 -35 13 -50 5 -68 -37
-13 -30 -17 -34 -30 -23 -11 9 -14 22 -9 43 14 59 8 116 -16 163 -38 72 -45
65 -45 -44 0 -58 -5 -107 -13 -120 -28 -53 -102 -13 -173 92 -26 39 -56 82
-67 97 -12 14 -21 32 -21 40 0 22 -50 121 -73 146 -18 19 -23 40 -28 107 -3
59 -10 90 -22 103 -12 13 -17 36 -17 81 0 53 -4 68 -25 93 -14 16 -25 40 -25
52 0 13 -11 38 -25 57 -55 75 -65 96 -80 162 -9 38 -27 91 -40 117 -14 27 -30
79 -36 117 -10 61 -9 74 10 127 18 51 20 74 15 155 -5 82 -3 103 14 147 17 43
20 71 19 195 -1 134 6 196 34 284 7 23 5 35 -9 55 -25 34 -48 176 -32 195 15
19 29 10 44 -26z m-279 -23 c12 -8 20 -28 22 -50 1 -20 12 -76 24 -123 15 -60
20 -105 16 -147 -10 -129 -69 -403 -122 -566 -30 -91 -57 -184 -61 -207 -8
-55 26 -221 81 -388 32 -100 44 -152 49 -226 5 -76 3 -99 -8 -108 -17 -14 -30
-107 -20 -145 4 -19 21 -34 54 -51 64 -33 94 -70 85 -110 -13 -64 -17 -106
-10 -123 6 -15 9 -13 21 11 31 57 85 22 104 -67 12 -59 8 -76 -17 -76 -13 0
-15 8 -10 42 7 51 -6 78 -38 78 -33 0 -38 -13 -24 -60 10 -32 10 -43 0 -53
-18 -18 -45 4 -51 42 -6 38 -20 42 -38 10 -12 -21 -13 -16 -9 48 4 68 3 74
-28 117 -18 25 -35 64 -39 86 -6 36 -9 40 -49 50 -69 19 -89 36 -82 71 5 20 1
38 -10 56 -13 20 -16 37 -10 78 5 46 2 61 -23 112 -60 117 -70 194 -81 597 -2
44 -13 -1 -41 -160 -16 -93 -41 -225 -56 -294 -20 -92 -26 -152 -26 -227 1
-90 -2 -110 -25 -160 -19 -43 -26 -76 -27 -125 -1 -69 -11 -83 -36 -53 -27 32
-2 140 52 223 l21 34 -23 54 c-30 72 -27 103 46 499 l59 320 3 338 c2 281 0
346 -13 389 -29 100 -25 110 61 123 34 5 54 19 115 81 64 65 78 74 109 74 20
0 45 -6 55 -14z m517 -3 c22 -20 23 -42 2 -71 -21 -30 -41 -28 -59 8 -19 37
-19 45 1 64 20 20 33 20 56 -1z m-781 -23 c23 -13 25 -48 3 -57 -19 -7 -44 21
-44 49 0 20 12 23 41 8z m-1410 -37 c7 -18 8 -78 5 -163 -4 -74 -9 -208 -12
-297 -3 -90 -9 -163 -14 -163 -21 0 -48 135 -79 384 -8 70 -7 84 9 115 10 20
23 56 30 81 20 74 43 90 61 43z m267 -18 c41 -18 155 -125 178 -168 8 -15 17
-69 21 -121 5 -78 2 -104 -16 -164 -18 -59 -21 -95 -21 -224 0 -249 27 -396
96 -527 25 -47 34 -77 34 -113 0 -58 -15 -63 -30 -9 -10 39 -35 69 -47 58 -3
-4 3 -37 15 -74 36 -118 64 -293 53 -337 -9 -38 -35 -75 -46 -65 -3 3 -14 39
-24 81 -21 82 -49 154 -56 146 -3 -2 0 -40 7 -84 6 -43 8 -90 5 -104 -7 -24
-54 -67 -63 -57 -3 3 -12 49 -20 103 -23 157 -29 160 -34 19 l-5 -130 -62 -99
c-35 -54 -65 -112 -67 -130 -2 -17 -12 -71 -21 -121 -8 -49 -19 -108 -23 -130
-6 -36 -10 -40 -38 -43 -45 -4 -59 17 -38 61 14 30 15 38 3 63 -8 16 -25 34
-39 41 -22 11 -27 10 -42 -8 -22 -26 -23 -61 -2 -100 8 -17 13 -37 10 -45 -7
-19 -51 -18 -70 2 -35 35 -7 161 40 183 37 17 50 14 89 -20 28 -25 35 -39 35
-68 1 -34 1 -35 16 -16 9 12 12 30 9 45 -3 14 1 43 10 64 23 53 15 66 -41 66
l-46 0 6 48 c12 83 13 84 56 77 50 -8 74 5 93 53 20 49 47 191 47 244 0 65
-17 34 -24 -44 -11 -114 -64 -198 -124 -198 -26 0 -32 19 -22 64 15 67 41 80
61 29 5 -14 12 -23 16 -19 10 9 3 928 -7 946 -13 25 -59 316 -65 415 -3 50
-12 112 -20 139 -30 100 -13 239 32 274 23 17 136 15 181 -3z m701 -4 c15 -26
-13 -116 -46 -149 l-26 -26 -18 23 c-23 28 -24 64 -4 81 8 7 15 24 15 39 0 15
5 32 12 39 18 18 56 14 67 -7z m237 -17 c7 -29 -21 -77 -49 -82 -14 -3 -16 2
-10 30 10 54 22 78 38 78 8 0 18 -12 21 -26z m633 -70 c23 -64 19 -347 -7
-529 -12 -82 -24 -184 -27 -226 -3 -42 -14 -103 -25 -135 -32 -93 -92 -215
-104 -211 -18 6 -18 119 -1 245 9 64 19 153 21 197 4 53 12 93 25 117 13 24
17 46 13 63 -3 14 -1 38 5 53 6 15 15 111 21 214 10 189 25 265 52 256 7 -3
19 -22 27 -44z m-2569 4 c11 -18 32 -69 46 -113 21 -66 24 -89 18 -135 -4 -30
-7 -127 -5 -215 2 -169 -11 -250 -39 -250 -33 0 -75 296 -75 520 0 224 11 264
55 193z m1408 -31 l53 -53 -32 -98 -31 -97 16 -64 c36 -144 2 -495 -61 -637
-29 -66 -50 -89 -62 -69 -5 7 -11 79 -14 159 -3 81 -17 268 -33 415 l-27 268
23 95 c17 73 28 99 47 114 40 31 64 25 121 -33z m1672 -2 c0 -25 -21 -38 -45
-29 -22 9 -18 30 7 48 26 18 38 13 38 -19z m-1266 -28 c18 -13 18 -15 1 -40
-17 -26 -51 -44 -62 -33 -10 10 17 86 30 86 7 0 21 -6 31 -13z m180 -19 c3
-13 7 -64 8 -113 3 -72 9 -98 28 -133 l24 -42 -17 -168 c-30 -286 -60 -425
-86 -396 -12 13 -68 249 -80 334 -6 41 -15 138 -21 215 -5 77 -12 163 -16 191
-6 44 -3 54 17 77 23 27 85 56 121 57 10 0 20 -9 22 -22z m1181 -102 c43 -43
50 -92 49 -356 0 -232 -2 -254 -32 -410 -59 -312 -59 -280 -8 -438 24 -75 46
-156 49 -179 3 -23 23 -81 45 -129 61 -132 36 -138 -45 -11 -23 37 -47 67 -52
67 -9 0 1 -57 19 -106 6 -16 29 -51 52 -77 22 -27 38 -50 35 -53 -8 -9 -102
72 -129 112 -17 23 -41 88 -60 159 -32 117 -33 125 -32 315 1 151 7 240 28
395 31 232 41 568 19 642 -15 48 -4 93 22 93 9 0 27 -11 40 -24z m-1460 -82
c27 -18 41 -22 48 -15 6 6 18 11 27 11 14 0 18 -18 23 -122 4 -66 7 -207 7
-312 0 -172 3 -206 30 -337 16 -80 41 -183 56 -229 17 -57 24 -93 19 -114 -3
-17 -10 -83 -15 -146 -7 -106 -12 -124 -55 -225 -45 -107 -46 -111 -35 -162 6
-28 21 -64 33 -79 15 -20 22 -46 25 -90 4 -57 2 -65 -21 -88 -26 -26 -27 -26
-197 -26 -129 0 -170 3 -171 13 -1 6 0 26 1 44 1 19 -9 50 -24 76 -25 42 -25
44 -10 84 16 40 16 43 -6 88 -21 44 -22 55 -16 171 6 101 4 136 -10 196 -25
101 -8 289 37 420 27 79 31 103 30 193 -1 56 -5 156 -11 221 -14 172 -12 314
5 380 8 31 17 59 19 61 3 3 19 0 38 -7 27 -10 38 -9 63 4 42 22 66 20 110 -10z
m-954 -814 c-3 -196 9 -311 40 -372 25 -49 21 -124 -8 -165 -10 -14 -32 -48
-48 -77 -31 -50 -31 -51 -80 -51 -28 0 -60 -7 -72 -15 -35 -23 -40 -3 -11 53
54 103 70 153 78 237 4 47 19 125 34 174 22 75 26 107 26 220 0 148 5 178 29
174 14 -3 16 -23 12 -178z m1820 -134 c26 -60 37 -154 45 -378 l7 -188 -32 0
c-45 0 -98 27 -106 53 -14 45 -18 385 -6 449 22 114 58 139 92 64z m-456 -103
c4 -16 9 -57 10 -93 2 -36 8 -78 14 -93 6 -16 11 -46 11 -67 0 -21 4 -50 9
-63 9 -23 -8 -171 -23 -208 -8 -18 17 -126 33 -142 6 -6 20 13 40 57 31 70 49
80 83 49 25 -23 23 -43 -13 -91 l-31 -42 60 0 c69 0 91 -17 99 -77 6 -47 -18
-117 -42 -121 -32 -7 -37 13 -14 61 28 57 17 97 -26 97 -63 0 -88 -56 -45 -95
31 -28 22 -59 -16 -63 -37 -4 -41 4 -51 86 -5 47 -12 62 -41 89 -40 38 -54 35
-29 -6 20 -34 23 -111 5 -129 -24 -24 -38 -13 -38 31 0 51 -18 81 -46 75 -17
-3 -19 -12 -19 -73 0 -63 -2 -70 -20 -70 -39 0 -42 118 -4 181 24 39 24 39 -2
63 -14 13 -20 28 -17 52 5 50 31 49 61 -1 14 -23 27 -38 30 -33 2 4 -6 51 -19
103 -28 113 -29 127 -8 170 16 31 16 36 0 79 -9 25 -16 65 -16 88 0 36 19 137
36 196 8 25 21 21 29 -10z m-1559 -47 c-8 -25 -23 -91 -32 -148 -22 -141 -33
-154 -34 -38 0 108 9 147 46 203 32 49 40 42 20 -17z m813 -336 c5 -52 13
-131 17 -175 10 -123 -13 -83 -42 76 -29 151 -35 356 -12 431 12 41 13 37 19
-97 4 -77 12 -183 18 -235z m1356 220 c29 -87 58 -220 50 -228 -3 -4 -20 8
-37 25 -28 28 -31 38 -30 85 1 29 -6 88 -16 130 -18 73 -18 104 0 76 4 -7 19
-47 33 -88z m-1539 -211 c11 -23 15 -52 13 -108 l-3 -76 27 3 c31 3 34 -8 10
-49 -14 -23 -15 -31 -4 -41 10 -11 16 -8 33 15 22 30 62 37 72 12 10 -26 -5
-45 -34 -45 -16 0 -42 -11 -59 -26 -27 -22 -31 -33 -32 -77 -2 -69 -11 -109
-27 -115 -10 -3 -12 9 -6 56 5 44 3 65 -9 83 -8 13 -17 45 -21 72 -6 48 -30
107 -44 107 -5 0 -16 -16 -26 -36 -9 -21 -28 -46 -42 -56 -38 -31 -27 -58 25
-58 47 0 72 -75 44 -129 -30 -58 -46 -53 -38 13 9 67 -3 86 -50 86 -48 0 -60
-20 -45 -75 13 -47 4 -75 -26 -75 -38 0 -44 111 -8 151 14 16 20 43 25 108 9
133 40 174 107 145 36 -15 47 -6 38 31 -4 17 3 37 25 69 17 25 32 46 34 46 3
0 12 -14 21 -31z m-696 -76 c0 -57 -14 -87 -30 -63 -12 19 -13 52 0 84 15 41
30 30 30 -21z m1982 9 c10 -15 25 -37 34 -49 16 -22 15 -23 -5 -23 -30 0 -61
35 -61 70 0 37 10 38 32 2z m324 9 c-25 -27 -68 -43 -107 -39 l-34 3 29 28
c24 22 38 27 79 27 49 0 50 -1 33 -19z m-3166 -68 c-1 -75 -23 -160 -55 -212
-19 -31 -35 -60 -35 -65 0 -20 -35 -46 -61 -46 -15 0 -41 11 -56 24 -39 35
-23 61 38 61 40 0 45 3 65 39 12 21 27 66 34 100 7 33 18 73 26 88 16 31 44
38 44 11z m934 -35 c-2 -60 -26 -103 -74 -133 -22 -14 -53 -43 -69 -66 -18
-24 -32 -35 -36 -29 -4 6 -9 46 -12 88 -5 64 -3 80 11 91 14 12 19 11 35 -3
34 -31 63 -17 95 47 16 31 34 56 40 54 6 -2 10 -24 10 -49z m149 13 c-1 -23
-18 -58 -52 -108 -46 -65 -51 -78 -51 -125 0 -57 -16 -128 -29 -128 -4 0 -7
28 -7 62 1 58 -1 63 -26 76 -21 9 -33 10 -48 2 -17 -9 -20 -21 -20 -75 0 -69
-9 -82 -28 -40 -34 75 3 143 92 169 54 16 66 28 66 69 1 32 26 95 46 118 10
11 27 19 38 17 17 -2 21 -10 19 -37z m2097 -1 c24 -47 26 -112 5 -130 -17 -14
-18 -13 -19 60 -1 30 -5 67 -10 83 -12 40 0 33 24 -13z m-56 -2 c9 -36 7 -106
-4 -113 -5 -3 -10 -5 -10 -3 0 2 -4 30 -10 62 -5 32 -7 63 -4 67 9 16 22 10
28 -13z m-2937 -22 l28 -24 -29 -23 c-27 -21 -28 -26 -22 -75 6 -51 5 -52 -35
-88 -22 -21 -45 -36 -51 -34 -16 6 -50 138 -43 165 8 33 78 103 103 103 11 0
33 -11 49 -24z m2846 -31 c5 -22 17 -63 28 -90 10 -28 19 -59 19 -69 0 -18 1
-18 20 -1 16 15 22 15 35 5 13 -11 11 -15 -17 -29 -40 -20 -47 -51 -19 -87 27
-34 26 -44 -3 -44 -33 0 -44 17 -52 80 -4 30 -24 92 -45 137 -22 46 -39 89
-39 97 0 33 13 47 39 44 21 -2 27 -10 34 -43z m979 15 c13 -16 18 -40 18 -86
0 -59 2 -64 33 -87 17 -14 60 -39 94 -56 70 -35 91 -72 76 -132 -14 -53 -33
-48 -33 9 0 67 -29 98 -69 73 -13 -9 -12 -50 5 -129 6 -32 5 -33 -22 -30 -24
2 -29 7 -27 28 10 102 6 124 -27 152 -41 34 -70 77 -70 104 0 12 -9 33 -20 47
-11 14 -20 32 -20 41 0 8 -14 31 -30 50 -35 39 -28 48 35 41 25 -2 46 -12 57
-25z m-164 -28 c75 -31 85 -46 79 -110 -4 -39 -1 -81 12 -131 19 -80 15 -136
-9 -136 -12 0 -15 15 -15 65 0 75 -12 100 -59 129 -50 31 -128 164 -111 190 9
16 54 12 103 -7z m-2123 -127 c17 -16 25 -35 25 -57 0 -18 3 -50 6 -70 6 -36
5 -38 -20 -38 -26 0 -27 2 -20 33 16 66 11 90 -20 101 -24 9 -31 7 -48 -14
-23 -29 -18 -73 12 -105 35 -37 17 -62 -23 -32 -23 17 -39 105 -26 151 16 59
71 75 114 31z m1555 -70 c36 -74 21 -126 -31 -110 -15 5 -18 13 -13 48 3 26 0
59 -10 86 -9 24 -16 48 -16 54 0 19 50 -36 70 -78z m-2155 -24 c-4 -12 -12
-20 -18 -18 -15 5 -21 33 -12 54 10 27 39 -8 30 -36z m1575 13 c0 -45 -24 -42
-28 4 -2 24 1 32 12 32 12 0 16 -10 16 -36z m-1784 -6 c-8 -39 -13 -45 -27
-31 -16 16 -2 63 17 63 13 0 15 -7 10 -32z m489 -8 c0 -51 -29 -48 -33 3 -3
33 -1 38 15 35 13 -2 18 -12 18 -38z m288 -6 c-7 -18 -23 -14 -37 9 -8 13 -7
20 4 27 18 12 42 -14 33 -36z m756 9 c0 -31 -2 -34 -9 -18 -12 28 -12 55 0 55
6 0 10 -17 9 -37z m720 14 c15 -40 17 -90 3 -94 -17 -6 -45 64 -38 93 8 31 24
31 35 1z m-3151 -1 c15 -8 36 -23 46 -35 40 -44 -8 -141 -70 -141 -29 0 -30 6
-4 45 26 39 26 81 0 95 -18 10 -22 7 -31 -19 -6 -17 -15 -28 -20 -25 -15 9
-10 61 7 78 19 20 37 20 72 2z m3998 -30 c38 -37 44 -49 44 -84 0 -22 -5 -44
-11 -48 -9 -5 -10 1 -5 19 8 32 -12 84 -43 112 -19 16 -24 17 -31 5 -10 -17
-15 -13 -24 18 -12 37 22 27 70 -22z m-1056 4 c0 -11 -4 -20 -10 -20 -5 0 -10
9 -10 20 0 11 5 20 10 20 6 0 10 -9 10 -20z m-3158 -40 c-2 -19 -6 -37 -8 -40
-9 -8 -24 25 -24 53 0 22 4 28 18 25 13 -3 16 -12 14 -38z m96 -24 c10 -20 11
-31 3 -39 -6 -6 -11 -24 -11 -39 0 -34 -40 -55 -80 -41 -35 12 -38 41 -6 49
17 4 28 15 31 30 3 13 7 36 10 50 7 33 35 28 53 -10z m4116 8 c9 -23 7 -39 -5
-71 l-12 -28 -8 29 c-14 50 8 114 25 70z m164 -55 c2 -63 -13 -49 -24 21 -6
34 -4 42 7 38 9 -3 15 -23 17 -59z m-2592 16 c18 -14 18 -16 -18 -47 -20 -18
-44 -45 -53 -60 -20 -32 -41 -36 -50 -9 -9 28 9 64 49 99 42 37 45 37 72 17z
m-416 -4 c0 -6 -9 -16 -21 -25 -33 -23 -53 -57 -59 -101 -5 -37 -8 -40 -39
-43 -52 -5 -81 5 -81 29 0 33 51 119 79 134 29 16 121 20 121 6z m150 2 c0 -5
-16 -22 -36 -38 -27 -23 -38 -42 -43 -70 -6 -39 -8 -40 -49 -43 -39 -3 -42 -2
-42 23 0 30 24 80 53 113 16 17 31 22 69 22 26 0 48 -3 48 -7z m127 -24 c-26
-22 -37 -38 -37 -58 0 -36 -17 -51 -57 -51 -28 0 -33 4 -33 23 0 12 16 43 35
70 33 45 38 47 82 47 l48 0 -38 -31z m2318 1 c0 -13 -6 -25 -12 -27 -16 -6
-27 21 -19 43 9 23 31 11 31 -16z m-2799 9 c3 -6 -8 -26 -26 -44 -18 -18 -35
-48 -39 -67 -6 -31 -10 -33 -53 -38 -57 -7 -68 -3 -68 21 0 33 31 97 54 112
39 26 119 36 132 16z m-376 -9 c0 -5 -14 -25 -31 -45 -18 -20 -35 -50 -38 -67
-8 -38 -29 -53 -64 -44 -33 8 -35 32 -8 84 20 38 45 65 71 75 25 9 70 8 70 -3z
m169 1 c12 -8 9 -16 -17 -46 -18 -19 -32 -47 -32 -60 0 -24 -3 -25 -56 -25
-47 0 -55 3 -50 16 3 9 6 19 6 24 0 17 55 73 85 86 36 16 46 17 64 5z m1868
-2 c38 -14 71 -46 94 -91 27 -53 25 -68 -12 -68 -48 0 -69 16 -69 53 0 25 -9
42 -35 67 -19 19 -35 38 -35 42 0 11 23 10 57 -3z m-2190 -16 c2 -6 -6 -14
-19 -18 -42 -13 -58 -35 -58 -82 l0 -43 -40 0 c-34 0 -40 3 -46 26 -11 42 19
92 69 115 45 20 88 22 94 2z m2395 -20 c35 -33 58 -74 58 -103 0 -19 -5 -21
-47 -18 -47 3 -48 4 -51 39 -2 26 -13 46 -38 70 -18 18 -34 37 -34 42 0 20 83
-2 112 -30z m346 -11 c76 -86 77 -102 6 -102 -34 0 -46 4 -50 18 -10 32 -24
57 -45 84 -50 62 34 63 89 0z m-2913 21 c-5 -10 -16 -40 -25 -67 -18 -50 -33
-66 -63 -66 -25 0 -30 21 -17 69 14 54 42 81 81 81 26 0 30 -3 24 -17z m2272
-3 c31 -18 59 -57 50 -67 -3 -2 -24 9 -48 26 -23 17 -53 31 -66 31 -14 0 -23
6 -23 15 0 22 48 19 87 -5z m458 -7 c33 -33 65 -83 65 -101 0 -9 -13 -12 -46
-10 -46 3 -47 4 -60 47 -7 25 -25 54 -41 67 l-28 23 41 1 c32 0 48 -6 69 -27z
m-2855 10 c-1 -17 -26 -99 -33 -110 -5 -7 -24 -13 -43 -13 -28 0 -34 4 -34 21
0 30 38 89 64 99 27 11 46 12 46 3z m3227 -25 c33 -34 53 -75 53 -109 0 -15
-7 -19 -35 -19 -32 0 -37 4 -54 43 -10 24 -30 51 -44 60 -15 9 -31 26 -37 37
-10 19 -8 20 38 20 41 0 53 -5 79 -32z m141 9 c20 -16 52 -86 52 -115 0 -21
-4 -23 -42 -20 -36 3 -43 7 -49 32 -4 15 -20 46 -35 68 -23 33 -25 41 -13 49
17 11 66 4 87 -14z m-1296 -1 c173 -33 314 -110 443 -241 170 -172 256 -398
241 -635 -7 -127 -28 -205 -86 -325 -85 -177 -208 -299 -385 -385 -140 -68
-212 -84 -370 -84 -195 0 -308 34 -470 140 -333 217 -463 648 -311 1026 71
174 231 346 401 430 62 31 170 67 233 78 78 13 225 11 304 -4z m-2204 -17 c1
-9 -8 -20 -23 -27 -20 -9 -25 -19 -25 -47 0 -35 -1 -36 -31 -33 -43 4 -57 28
-39 64 28 52 110 83 118 43z m3622 11 c18 -9 100 -125 100 -140 0 -12 -53 -19
-71 -9 -14 7 -99 139 -99 153 0 10 50 7 70 -4z m191 -23 c33 -20 54 -73 43
-104 -14 -40 -51 -44 -59 -6 -11 49 -13 52 -55 78 -41 26 -49 39 -27 49 17 7
75 -3 98 -17z m129 -12 c58 -30 81 -120 30 -120 -21 0 -26 5 -28 33 -2 22 -13
39 -33 54 -53 39 -29 64 31 33z m-4124 -45 c-1 -47 -2 -50 -28 -50 -22 0 -28
5 -28 23 0 52 11 68 51 76 3 0 6 -21 5 -49z m4279 3 c24 -23 38 -64 26 -76
-15 -15 -41 0 -41 23 0 11 -9 28 -20 37 -11 10 -20 21 -20 25 0 14 38 8 55 -9z
m121 -17 c21 -34 15 -70 -14 -74 -24 -4 -27 2 -37 61 -5 33 -3 37 14 37 11 0
28 -11 37 -24z m-3092 -55 c26 -21 19 -66 -14 -105 -27 -30 -35 -34 -65 -29
-36 6 -50 -12 -20 -23 11 -4 6 -12 -18 -32 -18 -15 -36 -32 -40 -39 -4 -7 -15
-13 -22 -13 -8 0 -15 -7 -15 -15 0 -8 7 -15 15 -15 8 0 15 -6 15 -14 0 -24
-45 -80 -69 -86 -26 -6 -41 -30 -19 -30 7 0 18 -16 24 -35 9 -28 8 -35 -2 -35
-8 0 -14 -7 -14 -15 0 -9 9 -15 24 -15 18 0 25 -7 30 -31 10 -52 7 -68 -17
-84 -21 -13 -30 -13 -93 4 -38 11 -88 24 -111 31 -26 6 -43 17 -43 25 0 18
-37 20 -43 3 -4 -10 -7 -10 -18 0 -15 14 -49 16 -49 3 0 -18 -33 -21 -45 -5
-7 10 -19 15 -28 11 -21 -8 -30 10 -52 93 -9 36 -29 85 -45 110 -27 42 -62
145 -74 216 -4 26 -1 33 14 37 27 7 25 25 -2 29 -40 6 -30 26 19 36 43 9 228
26 398 36 139 8 363 0 379 -13z m2044 -34 c-15 -59 -1 -92 48 -113 68 -28 122
14 110 86 -6 41 -1 51 20 43 21 -8 44 -57 44 -92 0 -20 7 -34 20 -41 17 -9 19
-17 14 -53 -4 -23 -11 -43 -16 -45 -17 -7 -7 -32 12 -32 21 0 27 -15 10 -25
-5 -3 -10 -24 -10 -46 0 -31 -8 -47 -36 -79 -30 -33 -43 -40 -74 -40 -21 0
-46 -3 -55 -6 -14 -6 -13 -8 7 -18 26 -13 35 -50 18 -72 -21 -25 6 -15 31 12
13 14 50 40 81 58 32 18 68 48 81 67 34 51 71 66 121 48 21 -8 48 -25 58 -40
24 -31 13 -65 -38 -121 -38 -43 -38 -56 0 -115 27 -43 54 -49 104 -24 50 25
112 27 181 4 55 -17 111 -69 111 -102 0 -10 7 -38 16 -62 12 -34 13 -53 5 -84
-6 -22 -13 -61 -16 -87 -5 -38 -11 -50 -33 -60 -17 -9 -28 -24 -33 -45 -3 -18
-27 -55 -53 -84 -25 -28 -46 -58 -46 -65 0 -8 -9 -32 -20 -54 -11 -22 -20 -47
-20 -57 0 -33 -56 -72 -108 -75 l-47 -3 1 39 c1 22 8 44 16 50 9 6 24 30 35
52 22 46 130 184 144 184 5 0 9 23 9 51 0 36 6 60 21 80 11 16 19 35 17 41 -2
6 -14 -2 -26 -20 -47 -65 -158 -101 -252 -81 -64 14 -80 32 -52 62 55 59 79
181 48 252 -13 30 -13 29 -20 -32 -8 -68 -49 -159 -93 -205 -25 -26 -26 -58
-3 -58 20 0 11 -94 -14 -140 -29 -55 -48 -142 -41 -184 3 -17 -1 -49 -9 -71
-13 -38 -16 -40 -61 -43 -70 -5 -83 3 -56 31 22 25 30 100 11 112 -13 8 -13
45 0 45 5 0 14 -9 20 -20 14 -27 28 -25 39 4 14 34 -2 90 -39 136 -27 33 -30
45 -25 72 l8 33 -27 -32 c-20 -23 -26 -39 -21 -54 4 -12 0 -34 -9 -53 -8 -17
-18 -47 -21 -66 -3 -19 -29 -73 -58 -120 l-53 -85 -58 -8 c-80 -11 -87 1 -34
54 52 51 108 176 107 236 l0 38 -15 -36 c-13 -30 -19 -35 -39 -31 -18 3 -25 0
-25 -12 0 -9 7 -16 15 -16 8 0 15 -7 15 -16 0 -24 -19 -54 -35 -54 -18 0 -20
-27 -3 -32 22 -8 -1 -38 -29 -38 -41 0 -51 -11 -55 -55 l-3 -40 -250 -6 c-137
-3 -251 -5 -253 -4 -1 1 20 13 48 27 27 14 50 21 50 16 0 -14 43 -5 48 10 2 6
-3 12 -11 12 -7 0 24 39 70 88 47 48 105 113 130 145 25 31 50 57 54 57 5 0 9
7 9 15 0 34 30 75 55 75 30 0 33 20 5 27 -11 3 -20 6 -20 8 0 19 25 65 36 65
16 0 19 26 4 32 -5 2 -2 43 10 103 10 55 23 132 27 170 l9 70 17 -32 c21 -40
22 -73 2 -73 -22 0 -18 -21 5 -27 11 -3 20 -13 20 -23 0 -10 -9 -20 -20 -23
-11 -3 -20 -10 -20 -16 0 -6 9 -11 20 -11 14 0 20 -7 20 -24 0 -15 -7 -26 -20
-29 -26 -7 -26 -25 1 -29 16 -2 28 -20 46 -68 14 -36 25 -77 25 -92 -1 -21 4
-28 17 -28 22 0 37 -16 46 -51 l6 -26 45 15 c35 11 55 27 84 66 20 28 43 62
50 76 14 26 61 200 54 200 -7 0 -44 -79 -68 -145 -40 -110 -97 -173 -131 -145
-15 12 11 66 127 265 72 123 33 80 -65 -72 -50 -79 -78 -113 -91 -113 -21 0
-56 27 -56 43 0 5 33 42 74 82 69 68 88 92 146 190 29 49 17 38 -42 -40 -54
-71 -126 -140 -158 -150 -25 -8 -56 14 -31 22 20 8 136 115 177 164 66 79 56
81 -18 3 -106 -112 -178 -160 -178 -119 0 8 20 28 45 45 51 35 57 44 19 30
-32 -13 -74 -13 -74 -1 0 5 20 21 44 35 40 23 63 52 52 63 -2 3 -21 -1 -40 -8
-37 -13 -66 -3 -52 19 11 18 74 42 109 42 44 0 54 14 25 34 -32 22 -55 20 -90
-9 -33 -28 -54 -31 -93 -13 -38 17 -31 23 27 23 50 0 53 2 56 26 4 32 -17 50
-57 51 -25 1 -29 4 -20 15 6 7 17 13 23 13 6 0 18 5 26 10 12 8 11 12 -8 30
-40 37 -26 132 25 165 29 20 29 40 -2 76 -22 27 -25 59 -4 59 5 0 9 14 9 30 0
23 7 35 32 50 18 10 34 18 35 16 2 -2 -2 -24 -9 -49z m-3020 20 c15 -12 16
-39 1 -54 -6 -6 -9 -23 -7 -39 l4 -29 11 25 c14 33 49 64 62 55 6 -3 11 -19
11 -35 0 -23 3 -27 20 -23 30 8 35 -21 11 -69 -21 -43 -20 -61 1 -40 37 37 53
-16 17 -54 -12 -13 -19 -30 -16 -38 9 -22 24 -20 32 4 8 24 30 26 39 3 4 -9
-2 -25 -14 -38 -27 -29 -25 -36 10 -28 26 5 30 2 30 -15 0 -12 -13 -30 -30
-42 -43 -31 -38 -42 18 -38 42 3 47 1 44 -17 -2 -11 -17 -32 -35 -47 -35 -31
-25 -36 28 -14 33 14 35 14 35 -3 0 -23 -18 -38 -50 -43 -46 -6 -26 -23 35
-30 33 -4 75 -10 93 -14 21 -4 53 0 88 11 47 15 65 16 111 6 30 -6 68 -20 84
-31 16 -12 45 -24 64 -27 48 -8 118 20 136 54 19 35 16 110 -4 150 -26 50 -21
102 13 143 20 22 30 45 30 66 0 34 21 61 83 108 20 16 40 39 43 53 11 41 74
55 74 16 0 -23 -39 -72 -71 -88 -36 -19 -37 -34 -4 -65 37 -34 33 -66 -10 -84
-37 -16 -45 -33 -20 -42 20 -8 19 -24 -2 -40 -15 -10 -16 -15 -5 -25 18 -19
15 -40 -10 -66 -20 -22 -20 -24 -4 -42 14 -15 15 -24 7 -40 -6 -11 -11 -35
-11 -54 0 -22 -8 -41 -22 -54 -29 -26 -114 -51 -206 -59 -40 -4 -72 -9 -72
-11 0 -3 10 -19 22 -36 17 -23 22 -44 21 -84 -1 -49 2 -57 60 -135 59 -79 65
-84 131 -108 75 -27 85 -39 66 -75 -17 -33 -6 -55 27 -55 24 0 33 -9 62 -64
48 -91 33 -146 -41 -149 -35 -2 -36 0 -22 68 5 27 -3 42 -56 113 -34 45 -65
82 -69 82 -4 0 -46 23 -92 51 -69 42 -96 53 -151 60 -78 10 -174 51 -238 102
l-45 37 -6 -42 c-12 -82 -67 -90 -142 -19 -29 26 -65 54 -82 62 -18 9 -41 34
-57 64 l-28 50 6 -72 7 -71 -52 -55 c-55 -59 -72 -68 -165 -89 -67 -15 -86
-34 -68 -70 6 -13 13 -50 14 -83 3 -60 3 -60 36 -63 27 -3 36 -10 52 -45 11
-22 20 -42 20 -44 0 -2 -16 -3 -36 -3 -42 0 -94 29 -118 64 -26 41 -40 110
-26 136 9 16 9 25 1 33 -6 6 -11 23 -11 38 0 33 44 70 105 89 70 22 82 46 45
93 -46 59 -38 148 21 227 22 29 38 58 36 64 -2 6 -17 13 -33 16 -27 5 -29 9
-32 53 -2 32 2 57 12 73 9 13 16 36 16 51 0 15 5 44 10 64 8 28 7 45 -5 72 -8
20 -15 56 -15 81 0 42 -18 76 -41 76 -15 0 -10 -32 7 -52 10 -10 19 -39 21
-65 4 -40 1 -51 -16 -67 -13 -12 -21 -31 -21 -53 0 -43 -23 -53 -55 -23 -33
31 -40 72 -21 111 9 18 16 54 16 81 0 26 5 48 10 48 6 0 10 18 10 41 0 23 7
47 15 55 8 9 15 26 15 39 0 17 14 33 53 59 49 34 55 36 112 30 33 -4 66 -11
73 -17z m2892 -6 c0 -6 -4 -13 -10 -16 -17 -11 -11 -37 10 -42 11 -3 20 -13
20 -23 0 -10 -9 -20 -20 -23 -23 -6 -27 -37 -5 -37 10 0 15 -10 15 -30 0 -20
-5 -30 -15 -30 -8 0 -15 -9 -15 -20 0 -11 5 -20 10 -20 7 0 10 -25 8 -67 -3
-64 -5 -68 -37 -90 -19 -13 -38 -20 -42 -16 -12 13 -50 156 -49 186 0 17 -5
27 -14 27 -20 0 -44 42 -27 48 6 2 11 12 11 23 0 13 -7 19 -23 19 -25 0 -57
44 -57 79 0 12 -6 21 -14 21 -8 0 -18 5 -21 10 -4 6 43 10 134 10 82 0 141 -4
141 -9z m240 -21 c16 -29 3 -59 -27 -66 -41 -11 -71 44 -41 74 19 19 56 14 68
-8z m252 -17 c-3 -19 2 -23 22 -23 17 0 26 6 26 16 0 24 25 11 28 -15 5 -29
31 -39 47 -18 11 15 18 14 76 -17 56 -30 64 -37 61 -60 -3 -20 1 -26 16 -26
11 0 22 5 24 12 3 8 20 2 51 -17 42 -27 47 -34 46 -65 0 -19 -3 -29 -6 -22 -8
20 -43 14 -43 -8 0 -15 7 -20 25 -20 18 0 25 -5 25 -20 0 -15 -7 -20 -25 -20
-18 0 -25 -5 -25 -20 0 -15 7 -20 26 -20 20 0 25 -4 20 -16 -3 -9 -6 -20 -6
-25 0 -5 -9 -9 -20 -9 -13 0 -20 -7 -20 -20 0 -13 7 -20 20 -20 15 0 20 -7 20
-25 0 -18 -5 -25 -20 -25 -13 0 -20 -7 -20 -20 0 -13 7 -20 20 -20 13 0 20 -7
20 -20 0 -18 -7 -20 -84 -20 -46 0 -91 3 -100 6 -17 7 -22 34 -6 34 6 0 10 9
10 20 0 11 -4 20 -10 20 -5 0 -10 11 -10 25 0 14 5 25 10 25 16 0 12 37 -5 44
-8 3 -15 12 -15 21 0 8 7 15 15 15 9 0 15 9 15 21 0 17 -5 20 -25 17 -14 -3
-30 0 -35 7 -6 7 -35 23 -64 35 -47 19 -52 24 -48 46 4 20 1 24 -22 24 -14 0
-26 -4 -26 -10 0 -5 -4 -10 -8 -10 -19 0 -41 27 -47 58 -5 25 -3 32 9 32 9 0
16 8 16 20 0 13 -7 20 -18 20 -14 0 -21 13 -29 53 -6 28 -9 56 -6 60 3 4 26 7
51 5 42 -3 47 -5 44 -25z m-4004 -66 c48 -51 77 -193 93 -455 15 -250 7 -472
-21 -576 -19 -70 -54 -156 -64 -156 -2 0 8 42 21 93 32 119 39 284 24 592 -12
258 -28 353 -73 436 -41 75 -28 117 20 66z m143 -104 c17 -64 23 -130 31 -363
11 -318 5 -681 -12 -750 -12 -51 -61 -131 -68 -112 -2 7 1 27 7 45 29 81 42
706 21 972 -27 335 -23 374 21 208z m4455 20 c31 -145 44 -698 24 -1004 -11
-172 -24 -224 -34 -139 -18 159 -49 1026 -40 1136 3 38 8 75 10 83 9 27 26 -5
40 -76z m94 19 c14 -46 29 -429 29 -732 0 -194 -17 -452 -32 -466 -6 -6 -15
163 -28 526 -12 326 -5 725 12 715 4 -3 13 -22 19 -43z m99 -7 c11 -30 30
-101 42 -157 20 -91 22 -135 23 -378 1 -262 0 -281 -26 -400 -14 -69 -31 -136
-36 -150 -10 -25 -10 -24 -16 10 -3 19 -8 190 -10 380 -3 190 -8 436 -12 548
-8 219 -2 245 35 147z m-4555 -209 c14 -83 27 -162 29 -176 2 -14 5 5 6 43 1
47 5 67 14 67 15 0 79 -65 95 -96 21 -41 -44 -252 -70 -226 -6 6 -14 25 -18
44 -8 32 -8 31 -9 -14 -1 -36 -9 -58 -33 -93 -17 -24 -33 -43 -35 -41 -7 7
-33 506 -32 616 1 113 1 114 15 71 7 -24 25 -112 38 -195z m4730 63 c22 -146
30 -361 17 -459 -21 -151 -43 -275 -52 -290 -6 -9 -8 142 -6 400 3 363 8 462
23 447 2 -2 10 -46 18 -98z m-4983 -169 c10 -128 10 -208 1 -350 -12 -194 -18
-230 -35 -230 -7 0 -8 36 -4 107 4 58 7 242 8 407 1 325 10 344 30 66z m3519
10 c0 -5 -7 -10 -16 -10 -8 0 -12 5 -9 10 3 6 10 10 16 10 5 0 9 -4 9 -10z
m65 1 c7 -12 -12 -24 -25 -16 -11 7 -4 25 10 25 5 0 11 -4 15 -9z m1489 -113
c19 -27 21 -77 4 -113 -20 -44 -33 -22 -36 58 -3 80 5 94 32 55z m-5160 -67
c27 -30 30 -81 7 -118 -12 -18 -24 -33 -28 -33 -5 0 -8 38 -8 85 -1 47 2 85 6
85 3 0 14 -8 23 -19z m-60 -75 c-3 -9 -10 -16 -15 -16 -11 0 -12 43 -2 54 10
10 24 -20 17 -38z m1734 -22 c28 -8 30 -44 2 -44 -11 0 -20 -7 -20 -15 0 -9 9
-15 24 -15 21 0 25 -7 35 -59 6 -33 25 -86 41 -118 35 -68 34 -63 15 -63 -8 0
-15 -7 -15 -16 0 -12 7 -15 26 -11 22 4 30 -2 57 -47 17 -28 64 -100 104 -160
40 -60 70 -112 67 -115 -3 -3 -39 -7 -80 -9 -79 -4 -76 -6 -88 51 -5 22 -3 27
14 27 32 0 25 30 -7 31 -24 0 -36 12 -77 77 -37 57 -50 86 -49 112 0 38 -10
45 -105 70 -48 12 -73 38 -66 66 5 19 2 24 -14 24 -23 0 -47 59 -58 141 -8 55
-5 58 79 68 85 11 89 12 115 5z m-1178 -57 c0 -7 -10 -17 -22 -22 -18 -8 -24
-21 -28 -55 l-5 -45 -47 -3 c-43 -3 -48 -1 -48 18 0 28 36 97 57 109 26 15 93
14 93 -2z m-42 -184 c3 -17 -6 -27 -36 -42 -21 -11 -44 -26 -51 -34 -7 -9 -16
-71 -22 -144 -10 -137 -21 -178 -50 -193 -29 -16 -31 -12 -12 23 15 27 18 60
19 213 1 100 4 186 8 192 4 7 34 10 74 9 61 -2 67 -4 70 -24z m393 -59 c46
-21 59 -32 59 -49 0 -21 3 -22 141 -24 167 -2 213 -14 217 -54 3 -24 7 -27 35
-26 38 3 99 -16 144 -43 56 -33 67 -130 20 -163 -18 -13 -81 -15 -392 -15
-216 0 -385 4 -406 10 -41 11 -82 50 -61 57 19 7 14 33 -7 33 -23 0 -40 22
-23 28 7 2 12 11 12 19 0 12 -7 14 -35 9 -34 -7 -35 -6 -35 26 0 62 9 77 54
89 55 14 113 49 155 93 19 20 41 36 49 36 8 0 41 -12 73 -26z m3569 -27 c0
-20 -82 -56 -113 -50 -20 4 -27 1 -27 -11 0 -9 6 -16 14 -16 16 0 -14 -86 -62
-180 -23 -44 -34 -56 -56 -58 -25 -3 -28 -7 -23 -31 7 -35 -9 -54 -34 -40 -14
7 -17 17 -13 38 5 23 2 29 -15 34 -24 6 -29 27 -6 27 9 0 15 9 15 25 0 16 -6
25 -15 25 -9 0 -15 9 -15 24 0 19 4 22 25 18 22 -4 25 -1 25 22 0 16 -5 26
-15 26 -19 0 -19 10 1 82 16 55 18 57 43 51 43 -12 163 -6 206 10 52 19 65 20
65 4z m-2933 -86 c66 -33 147 -132 140 -171 -13 -65 -35 -104 -63 -112 -31 -8
-64 -2 -64 12 0 5 14 25 30 44 28 31 30 38 22 74 -15 65 -66 129 -122 153 -27
12 -47 26 -44 31 7 11 34 3 101 -31z m3149 -73 c3 -10 -4 -39 -16 -63 -12 -25
-24 -63 -27 -85 -3 -22 -11 -40 -18 -40 -7 0 -27 -3 -44 -6 -29 -6 -31 -4 -31
21 0 17 10 37 25 51 29 27 34 84 10 104 -19 16 -19 28 1 75 l15 38 40 -39 c21
-21 42 -46 45 -56z m-766 -53 c-7 -8 -10 -22 -6 -30 3 -9 0 -15 -9 -15 -20 0
-19 35 2 67 15 22 19 24 21 10 2 -10 -2 -24 -8 -32z m617 19 c3 -9 -2 -32 -13
-51 -10 -20 -17 -50 -15 -68 3 -44 -14 -53 -28 -13 -17 48 -13 93 10 122 24
30 37 33 46 10z m-3981 -193 l-26 -27 22 -22 22 -22 -25 0 c-31 0 -74 43 -65
65 7 19 65 45 84 38 10 -4 7 -12 -12 -32z m134 6 c0 -7 -6 -19 -12 -25 -10
-10 -10 -17 0 -32 17 -28 16 -30 -16 -30 -53 0 -67 37 -30 77 23 25 58 31 58
10z m535 7 c13 -5 10 -11 -17 -34 l-33 -28 18 -31 c16 -27 16 -32 3 -37 -27
-11 -59 1 -80 29 l-21 29 35 30 c28 24 49 37 77 47 1 1 9 -2 18 -5z m230 -38
l-27 -22 22 -37 c27 -45 18 -60 -30 -55 -22 2 -40 12 -53 30 -20 26 -20 30 -5
61 20 41 73 70 101 55 19 -10 18 -11 -8 -32z m-661 25 c3 -5 -1 -15 -10 -22
-10 -8 -13 -21 -9 -36 6 -27 -10 -31 -37 -6 -21 19 -23 44 -6 61 14 14 54 16
62 3z m130 0 c3 -4 -6 -13 -20 -19 -21 -10 -23 -15 -14 -32 17 -31 -21 -26
-54 7 -26 25 -26 28 -10 40 20 15 90 18 98 4z m160 -9 c-12 -9 -30 -22 -40
-28 -18 -11 -18 -12 -1 -31 9 -11 17 -24 17 -30 0 -15 -26 -24 -47 -16 -26 9
-73 55 -73 70 0 20 78 53 125 52 39 0 40 0 19 -17z m260 11 c4 -4 -3 -15 -16
-24 -21 -16 -22 -20 -10 -51 17 -48 15 -58 -10 -58 -26 0 -68 37 -68 60 0 17
31 49 65 68 24 14 29 14 39 5z m630 -6 c17 -13 17 -14 -5 -29 -13 -8 -43 -25
-66 -37 -43 -22 -54 -46 -32 -68 17 -17 2 -33 -31 -33 -34 0 -80 49 -80 86 0
26 38 48 135 80 52 16 58 17 79 1z m2701 -13 c19 -21 22 -30 14 -40 -18 -22
-27 -17 -49 26 -18 34 -18 40 -5 40 9 0 27 -12 40 -26z m-3077 -1 c2 -7 -3
-13 -11 -13 -30 0 -39 -25 -23 -71 8 -24 13 -45 10 -48 -12 -12 -60 17 -77 47
-22 37 -16 51 38 84 33 20 56 20 63 1z m562 7 c18 -11 20 -9 -63 -55 l-68 -37
3 -42 3 -41 -38 1 c-44 2 -87 36 -87 69 0 18 18 31 98 68 99 47 126 54 152 37z
m-391 -9 c10 -7 4 -15 -28 -32 -45 -26 -49 -38 -25 -74 14 -22 14 -24 -6 -35
-47 -25 -105 20 -98 77 5 46 114 91 157 64z m2823 -18 c30 -29 37 -53 14 -53
-12 0 -66 60 -66 74 0 14 26 4 52 -21z m-2354 1 c22 -6 22 -8 -15 -28 -38 -22
-41 -30 -32 -85 3 -21 -1 -26 -31 -34 -31 -8 -37 -6 -58 18 -13 15 -22 35 -20
43 3 17 103 92 122 92 6 0 21 -3 34 -6z m2275 -22 c32 -33 33 -38 8 -51 -16
-9 -23 -4 -45 29 -31 47 -31 50 -8 50 10 0 30 -13 45 -28z m-1379 -23 c40 -35
47 -46 44 -73 -3 -34 -27 -44 -75 -31 -22 5 -24 10 -19 38 5 28 1 38 -24 62
-62 59 7 63 74 4z m1176 9 c24 -39 24 -48 6 -73 -13 -18 -14 -17 -29 11 -13
26 -21 64 -18 87 2 17 23 5 41 -25z m86 24 c6 -4 18 -21 27 -38 14 -28 15 -34
2 -44 -22 -18 -40 -6 -53 36 -14 48 -5 66 24 46z m-2051 -12 c4 -6 1 -17 -5
-25 -8 -9 -9 -29 -5 -54 6 -38 5 -39 -25 -46 -23 -5 -36 -2 -51 11 -28 25 -24
53 13 91 32 33 61 42 73 23z m667 -35 c14 -16 27 -38 31 -47 9 -26 -19 -48
-62 -48 -35 0 -38 2 -33 25 3 17 -4 36 -21 59 l-26 33 32 10 c38 12 46 8 79
-32z m242 15 c57 -51 51 -120 -11 -120 -22 0 -24 3 -19 26 5 17 1 35 -9 50 -8
13 -22 35 -31 49 -16 24 -16 25 10 25 14 0 40 -13 60 -30z m288 -3 c36 -28 43
-39 43 -68 0 -31 -3 -34 -33 -37 -45 -5 -69 5 -54 20 19 19 14 43 -13 68 -58
54 -11 68 57 17z m275 12 c58 -28 71 -53 46 -88 -14 -18 -31 -27 -57 -29 -37
-3 -37 -3 -31 30 6 29 2 37 -25 61 -53 48 -11 64 67 26z m117 10 c28 -13 62
-88 53 -114 -4 -8 -17 -15 -30 -15 -20 0 -23 4 -19 30 3 24 -3 37 -31 65 -44
44 -31 60 27 34z m269 2 c17 -7 27 -22 35 -51 10 -39 9 -42 -14 -52 -31 -14
-41 -5 -59 55 -10 35 -11 47 -2 51 7 2 13 5 14 5 1 1 13 -3 26 -8z m-769 -32
c27 -31 28 -56 4 -86 -12 -15 -84 -17 -93 -3 -3 5 -1 19 5 30 9 18 7 27 -15
56 l-26 34 50 0 c43 0 53 -4 75 -31z m246 -11 c36 -49 39 -83 9 -91 -35 -9
-49 3 -49 42 0 20 -7 45 -15 55 -20 27 -19 36 5 36 12 0 32 -17 50 -42z m421
26 c7 -9 13 -37 13 -62 1 -41 -2 -47 -21 -50 -17 -3 -23 2 -23 15 0 10 -9 32
-20 48 -29 44 -26 65 9 65 16 0 34 -7 42 -16z m-1659 -9 c32 -6 35 -9 26 -25
-8 -12 -8 -26 0 -49 13 -37 4 -44 -50 -39 -27 2 -36 10 -51 39 -15 30 -16 41
-6 63 8 17 18 25 28 22 9 -3 33 -8 53 -11z m463 -26 c9 -17 15 -40 13 -52 -2
-18 -11 -23 -46 -25 -40 -3 -42 -2 -37 20 3 13 2 36 -4 50 -11 29 -4 36 36 37
15 1 28 -9 38 -30z m-105 -41 c0 -33 -38 -53 -80 -43 -30 8 -40 21 -40 57 0
28 7 32 70 41 31 4 50 -17 50 -55z m-163 38 c0 0 3 -19 5 -41 3 -38 1 -40 -26
-43 -63 -7 -93 6 -110 48 -9 22 -16 43 -16 46 0 5 141 -5 147 -10z m-850 -132
c8 -20 -21 -44 -53 -44 -32 0 -38 16 -14 40 24 24 58 26 67 4z m223 -4 c0 -21
-27 -40 -59 -40 -28 0 -33 13 -15 38 20 29 74 31 74 2z m137 4 c9 -25 -24 -44
-79 -44 -47 0 -47 0 -36 25 12 26 25 32 76 34 22 1 35 -4 39 -15z m148 5 c12
-18 -25 -47 -67 -54 -52 -9 -67 5 -44 39 13 21 24 26 61 26 24 0 47 -5 50 -11z
m145 -3 c0 -24 -27 -44 -69 -51 -47 -8 -63 -1 -54 23 12 34 26 42 74 42 36 0
49 -4 49 -14z m173 -3 c-14 -42 -35 -53 -95 -53 -48 0 -58 3 -58 17 0 36 30
53 96 53 56 0 63 -2 57 -17z m134 -15 c-13 -32 -16 -33 -75 -36 -66 -3 -70 0
-50 43 10 23 16 25 75 25 l63 0 -13 -32z m127 10 c-11 -39 -25 -48 -70 -48
-47 0 -50 4 -34 44 8 23 15 26 60 26 49 0 51 -1 44 -22z m-1814 2 c0 -14 -40
-32 -57 -26 -12 5 -13 9 -3 21 14 17 60 21 60 5z m88 -2 c-5 -13 -53 -29 -62
-21 -2 3 -2 11 1 19 6 17 66 19 61 2z m92 4 c0 -15 -24 -32 -47 -32 -22 0 -31
19 -16 33 9 10 63 9 63 -1z m110 0 c0 -17 -25 -32 -52 -32 -30 0 -31 1 -22 24
6 16 74 24 74 8z m110 0 c0 -17 -25 -32 -52 -32 -26 0 -37 17 -21 33 9 10 73
9 73 -1z m108 -9 c-4 -21 -48 -39 -72 -30 -14 5 -15 11 -6 27 14 27 83 29 78
3z m122 8 c0 -15 -42 -41 -67 -41 -22 0 -32 27 -16 43 10 11 83 8 83 -2z m208
-13 c-20 -31 -78 -38 -78 -10 0 27 8 32 53 32 39 0 39 0 25 -22z m1097 -3 c0
-29 -69 -46 -92 -23 -29 29 -9 49 44 46 40 -3 48 -6 48 -23z m130 -5 c0 -19
-6 -26 -24 -28 -44 -7 -71 6 -71 34 0 24 3 25 48 22 43 -3 47 -5 47 -28z m139
7 c14 -22 -6 -37 -50 -37 -35 0 -59 22 -50 45 8 23 85 16 100 -8z m94 -3 c2
-16 -4 -23 -23 -28 -31 -8 -45 -1 -45 23 0 25 10 32 40 29 17 -2 26 -10 28
-24z m102 2 c0 -31 -35 -45 -57 -23 -23 23 -9 47 27 47 25 0 30 -4 30 -24z
m108 2 c5 -24 -32 -42 -58 -28 -22 12 -26 36 -7 44 24 10 62 1 65 -16z m-2678
2 c0 -5 -9 -10 -21 -10 -11 0 -17 5 -14 10 3 6 13 10 21 10 8 0 14 -4 14 -10z
m80 0 c0 -5 -14 -10 -31 -10 -17 0 -28 4 -24 10 3 6 17 10 31 10 13 0 24 -4
24 -10z m2695 -10 c0 -23 -69 -20 -73 3 -3 16 2 18 35 15 26 -2 38 -8 38 -18z
m105 -1 c0 -17 -5 -20 -32 -17 -22 2 -34 9 -36 21 -3 14 4 17 32 17 30 0 36
-4 36 -21z m100 1 c0 -24 -41 -28 -59 -7 -14 18 -4 27 31 27 21 0 28 -5 28
-20z m100 5 c0 -10 -10 -15 -30 -15 -20 0 -30 5 -30 15 0 10 10 15 30 15 20 0
30 -5 30 -15z m98 -2 c2 -9 -7 -13 -27 -13 -30 0 -39 9 -24 24 11 10 46 3 51
-11z m80 0 c2 -8 -6 -13 -22 -13 -26 0 -40 12 -29 24 11 11 46 2 51 -11z m82
-3 c0 -5 -11 -10 -24 -10 -14 0 -28 5 -31 10 -4 6 7 10 24 10 17 0 31 -4 31
-10z m70 0 c0 -5 -9 -10 -19 -10 -11 0 -23 5 -26 10 -4 6 5 10 19 10 14 0 26
-4 26 -10z m60 0 c0 -5 -7 -10 -15 -10 -8 0 -15 5 -15 10 0 6 7 10 15 10 8 0
15 -4 15 -10z m-3135 -70 c4 -6 3 -35 0 -65 -7 -56 -21 -69 -44 -41 -15 18
-26 80 -18 101 7 17 52 21 62 5z m154 -12 c42 -45 36 -118 -10 -118 -24 0 -39
29 -46 90 -5 46 -4 50 15 50 12 0 30 -10 41 -22z m195 6 c3 -9 9 -40 12 -70 7
-53 6 -54 -19 -54 -43 0 -69 30 -75 88 l-5 52 41 0 c27 0 42 -5 46 -16z m179
-42 c15 -32 27 -61 27 -65 0 -4 -22 -7 -50 -7 -57 0 -70 14 -70 78 0 46 5 52
40 52 23 0 30 -9 53 -58z m163 32 c10 -14 18 -44 18 -67 1 -41 0 -42 -34 -45
-53 -4 -72 15 -78 82 l-4 56 41 0 c33 0 44 -5 57 -26z m146 16 c31 -9 39 -17
49 -49 6 -22 9 -51 5 -65 -6 -23 -12 -26 -46 -26 -45 0 -61 18 -80 88 -16 64
-4 73 72 52z m2188 -11 c22 -40 -37 -120 -77 -105 -12 5 -11 10 6 32 12 15 21
39 21 54 0 44 31 56 50 19z m-3205 1 c3 -6 3 -31 -1 -56 -5 -38 -10 -45 -27
-42 -23 3 -40 49 -32 86 4 15 13 22 30 22 13 0 27 -5 30 -10z m2165 -16 c12
-30 13 -84 2 -101 -11 -17 -67 -20 -85 -5 -8 7 -20 33 -27 59 -12 42 -12 47 5
59 10 8 36 14 57 14 32 0 40 -4 48 -26z m124 14 c24 -88 28 -121 15 -129 -22
-13 -66 -11 -82 5 -15 16 -32 110 -22 126 9 15 85 12 89 -2z m481 2 c4 -6 9
-34 12 -64 l5 -53 -41 -7 c-23 -3 -46 -4 -52 -1 -5 4 -9 35 -9 71 l0 64 39 0
c22 0 43 -5 46 -10z m-1500 -47 c-15 -80 -38 -100 -101 -88 -38 7 -42 22 -24
84 12 44 17 47 80 42 l52 -3 -7 -35z m279 41 c19 -7 22 -64 6 -95 -8 -14 -21
-19 -50 -19 l-40 0 0 54 c0 34 5 56 13 59 18 8 53 8 71 1z m131 -10 c11 -11
15 -30 13 -58 -3 -39 -5 -41 -39 -44 -43 -4 -59 12 -66 67 -4 32 -2 40 13 44
38 10 63 7 79 -9z m178 -1 c13 -8 2 -94 -14 -105 -18 -12 -79 -2 -96 15 -21
21 -29 87 -12 98 14 10 104 3 122 -8z m137 2 c7 -9 15 -38 18 -64 4 -48 4 -49
-27 -56 -45 -10 -71 3 -87 41 -21 51 -18 82 9 87 47 9 75 6 87 -8z m466 -11
c4 -15 3 -43 -2 -63 -9 -34 -11 -36 -54 -39 l-45 -3 -18 58 c-9 32 -17 61 -17
66 0 4 29 7 65 7 61 0 65 -1 71 -26z m167 -24 c-3 -52 -31 -83 -72 -78 -21 3
-27 11 -38 53 -18 71 -14 77 54 73 l58 -3 -2 -45z m372 38 c40 -18 32 -69 -16
-93 -53 -28 -62 -22 -55 37 4 28 9 55 12 60 7 11 29 10 59 -4z m-1590 -52 c0
-48 -1 -50 -34 -59 -56 -14 -81 3 -81 56 0 24 3 47 7 51 4 4 30 6 58 4 l50 -3
0 -49z"/>
<path d="M2620 9559 c-30 -12 -170 -118 -170 -129 0 -7 33 -19 51 -20 4 0 35
23 69 50 83 66 112 67 179 5 26 -25 55 -45 65 -45 21 0 21 1 -13 68 -18 36
-39 63 -56 70 -31 14 -90 15 -125 1z"/>
<path d="M3410 9543 c-23 -8 -79 -64 -102 -101 -38 -62 21 -70 64 -9 32 46 48
56 88 57 25 0 46 -9 70 -29 39 -32 76 -46 84 -33 6 10 -78 94 -111 111 -23 11
-67 13 -93 4z"/>
<path d="M3015 8585 c-3 -8 -7 -22 -10 -30 -7 -24 -31 -17 -45 13 l-14 27 -4
-24 c-4 -28 27 -74 53 -80 26 -5 45 26 45 71 0 37 -16 52 -25 23z"/>
<path d="M3375 8464 c-6 -40 -22 -77 -53 -126 -19 -30 -10 -48 16 -32 35 22
62 76 62 123 0 64 -16 87 -25 35z"/>
<path d="M2756 8413 c-12 -51 28 -113 66 -101 8 3 2 15 -17 34 -16 16 -32 45
-35 64 l-6 35 -8 -32z"/>
<path d="M2907 3394 c-296 -66 -525 -284 -603 -574 -25 -92 -25 -291 0 -385
40 -151 114 -274 230 -382 267 -251 669 -279 976 -70 235 161 370 463 331 740
-45 319 -271 578 -576 662 -87 23 -274 28 -358 9z m218 -138 c-20 -123 -45
-354 -45 -416 0 -37 -4 -50 -15 -50 -8 0 -16 13 -19 33 -2 17 -14 104 -26 192
-11 88 -29 199 -38 248 -18 87 -15 101 17 73 29 -26 84 -24 108 4 28 33 33 10
18 -84z m-175 86 c0 -34 35 -295 55 -410 29 -168 28 -152 13 -152 -7 0 -35 58
-62 128 -27 70 -77 187 -112 259 -37 79 -58 135 -52 139 5 3 15 1 21 -5 28
-28 117 2 117 39 0 6 5 10 10 10 6 0 10 -3 10 -8z m248 -22 c32 -31 60 -37 92
-20 24 13 70 3 70 -15 0 -7 10 -24 21 -39 18 -23 28 -27 63 -25 48 3 50 -9 7
-56 -43 -47 -151 -190 -226 -300 -38 -55 -70 -102 -72 -104 -2 -3 -8 0 -13 5
-7 7 3 38 29 95 52 113 150 370 156 411 8 55 -77 -130 -146 -319 -40 -108 -69
-173 -78 -173 -10 0 -12 8 -7 33 16 74 47 329 53 430 3 59 10 107 14 107 4 0
21 -13 37 -30z m-421 -47 c24 -74 106 -269 154 -372 33 -68 59 -128 59 -133 0
-23 -28 -3 -56 40 -37 57 -220 288 -277 349 -22 24 -37 47 -33 50 4 4 23 6 42
4 40 -3 84 29 84 61 0 23 19 24 27 1z m743 -97 c0 -39 37 -76 76 -76 19 0 34
-4 34 -9 0 -4 -24 -24 -53 -43 -64 -43 -238 -181 -329 -260 -71 -63 -101 -63
-51 -1 87 110 212 278 256 345 51 77 67 87 67 44z m-818 -113 c53 -71 132
-171 176 -223 44 -52 76 -99 72 -104 -5 -5 -41 18 -82 51 -106 86 -222 173
-305 228 -40 26 -73 53 -73 60 0 6 14 12 32 12 38 0 68 32 68 74 0 16 4 29 8
29 5 0 51 -57 104 -127z m949 -14 c-14 -46 21 -109 61 -109 41 0 12 -18 -94
-59 -62 -24 -176 -73 -253 -108 -77 -36 -146 -67 -152 -70 -21 -9 -15 25 6 37
43 22 210 154 390 307 28 24 49 24 42 2z m-848 -245 c136 -94 131 -90 123
-103 -5 -7 -23 -3 -54 13 -62 31 -329 138 -415 166 -67 22 -83 42 -38 48 32 5
55 46 48 86 -3 19 -3 36 -1 39 3 3 55 -35 115 -83 60 -48 160 -123 222 -166z
m940 94 c2 -7 -2 -23 -10 -34 -19 -30 -7 -69 29 -97 l29 -24 -109 -11 c-97
-11 -357 -52 -434 -68 -20 -5 -28 -2 -28 8 0 8 50 33 133 66 72 28 186 78 252
111 135 67 132 66 138 49z m-1228 -66 c61 -28 174 -74 253 -103 88 -33 142
-58 142 -67 0 -8 -7 -11 -17 -8 -33 10 -297 45 -423 56 -69 6 -127 13 -129 15
-2 3 11 18 29 35 33 31 35 43 14 109 -6 19 -4 23 7 18 8 -3 64 -28 124 -55z
m625 -119 c60 -53 48 -153 -22 -189 -78 -40 -168 14 -168 102 0 39 5 51 34 80
29 29 41 34 80 34 36 0 52 -6 76 -27z m650 6 c0 -6 -9 -22 -20 -36 -26 -33
-25 -64 1 -97 12 -15 19 -29 17 -31 -2 -2 -40 2 -83 10 -120 21 -342 45 -412
45 -61 0 -89 14 -62 31 8 5 30 9 51 9 50 0 304 37 408 59 47 10 88 19 93 20 4
0 7 -4 7 -10z m-1072 -66 c130 -13 182 -21 182 -30 0 -7 -7 -13 -15 -13 -54 0
-440 -57 -522 -77 -17 -4 -23 -1 -23 11 0 9 4 16 10 16 12 0 25 47 21 75 -2
11 -9 27 -17 36 -29 32 -14 35 84 18 53 -10 179 -26 280 -36z m719 -83 c84
-11 198 -23 253 -26 74 -5 100 -11 100 -21 0 -7 -4 -13 -10 -13 -38 0 -67 -89
-38 -118 25 -25 -4 -24 -59 3 -70 33 -361 148 -420 166 -53 15 -61 45 -10 35
17 -4 101 -15 184 -26z m-529 10 c-2 -6 -68 -37 -148 -69 -80 -32 -196 -82
-258 -111 -102 -48 -145 -59 -114 -28 29 29 3 118 -35 118 -7 0 -13 6 -13 13
0 9 37 16 128 25 70 7 188 23 262 36 157 27 183 30 178 16z m530 -116 c85 -34
187 -73 228 -86 41 -12 74 -26 74 -31 0 -4 -10 -11 -22 -16 -44 -17 -75 -70
-59 -99 12 -22 -19 -62 -48 -62 -31 0 -75 -43 -76 -76 -2 -42 -19 -39 -50 8
-36 56 -199 266 -264 343 -73 84 -50 91 46 13 137 -113 351 -268 369 -268 24
0 -149 142 -318 261 -126 89 -122 85 -114 98 5 7 19 6 44 -5 20 -9 106 -45
190 -80z m-508 78 c0 -5 -57 -51 -128 -104 -70 -52 -168 -129 -217 -171 -50
-42 -94 -76 -100 -76 -5 -1 -8 16 -7 37 4 42 -25 82 -58 82 -49 0 -12 28 83
63 56 21 170 69 252 106 151 69 175 78 175 63z m25 -32 c3 -5 -23 -45 -58 -87
-77 -94 -201 -260 -242 -325 -33 -52 -48 -57 -49 -15 -2 37 -38 70 -75 70 -17
0 -31 5 -31 12 0 6 33 34 73 61 87 61 314 242 341 272 21 24 32 27 41 12z m38
-26 c3 -4 -7 -32 -22 -63 -36 -71 -143 -337 -167 -414 -17 -56 -34 -70 -40
-32 -5 36 -41 60 -89 58 -50 -2 -55 5 -24 33 28 25 200 247 269 347 53 76 60
83 73 71z m259 -121 c52 -71 132 -173 178 -227 82 -97 83 -99 51 -93 -45 9
-90 -15 -98 -53 -10 -53 -29 -33 -67 73 -21 56 -69 172 -107 258 -38 85 -69
158 -69 162 0 23 27 -7 112 -120z m-77 -33 c31 -80 81 -196 111 -259 30 -62
51 -117 48 -122 -3 -5 -16 -2 -28 7 -32 20 -72 9 -98 -27 -12 -16 -24 -29 -28
-29 -3 0 -14 73 -23 163 -10 89 -28 217 -40 284 -16 82 -20 124 -13 126 6 3
12 4 12 3 1 0 28 -66 59 -146z m-140 121 c-11 -34 -44 -283 -56 -415 -7 -72
-13 -133 -15 -135 -2 -2 -15 11 -29 28 -29 34 -69 41 -105 19 -10 -7 -22 -10
-25 -7 -3 3 18 57 45 120 40 90 128 315 155 397 3 6 12 12 20 12 11 0 15 -6
10 -19z m59 -133 c16 -143 48 -346 62 -395 8 -29 -9 -30 -36 -3 -11 11 -31 20
-44 20 -13 0 -35 -9 -49 -20 -31 -25 -50 -26 -43 -2 12 36 46 279 57 413 8 88
17 139 24 139 7 0 18 -58 29 -152z"/>
<path d="M3012 2677 c-12 -13 -22 -36 -22 -51 0 -34 41 -76 75 -76 33 0 75 41
75 73 0 67 -83 102 -128 54z"/>
<path d="M1810 3255 c0 -8 9 -15 20 -15 11 0 20 7 20 15 0 8 -9 15 -20 15 -11
0 -20 -7 -20 -15z"/>
<path d="M1877 3263 c-14 -13 -6 -23 18 -23 16 0 25 6 25 15 0 15 -31 21 -43
8z"/>
<path d="M1940 3255 c0 -8 9 -15 20 -15 11 0 20 7 20 15 0 8 -9 15 -20 15 -11
0 -20 -7 -20 -15z"/>
<path d="M2010 3255 c0 -8 9 -15 20 -15 11 0 20 7 20 15 0 8 -9 15 -20 15 -11
0 -20 -7 -20 -15z"/>
<path d="M2100 3254 c0 -10 7 -14 22 -12 32 5 35 28 4 28 -17 0 -26 -5 -26
-16z"/>
<path d="M1637 3253 c-14 -13 -6 -23 18 -23 16 0 25 6 25 15 0 15 -31 21 -43
8z"/>
<path d="M1732 3248 c7 -20 48 -23 48 -4 0 11 -9 16 -26 16 -16 0 -24 -5 -22
-12z"/>
<path d="M1403 3228 c2 -7 12 -13 22 -13 10 0 20 6 23 13 2 7 -6 12 -23 12
-17 0 -25 -5 -22 -12z"/>
<path d="M1483 3228 c2 -7 12 -13 22 -13 10 0 20 6 23 13 2 7 -6 12 -23 12
-17 0 -25 -5 -22 -12z"/>
<path d="M1562 3228 c7 -20 48 -23 48 -4 0 11 -9 16 -26 16 -16 0 -24 -5 -22
-12z"/>
<path d="M1407 3164 c-14 -14 -6 -24 19 -24 16 0 24 5 22 13 -5 14 -31 21 -41
11z"/>
<path d="M1490 3155 c0 -8 9 -15 20 -15 11 0 20 7 20 15 0 8 -9 15 -20 15 -11
0 -20 -7 -20 -15z"/>
<path d="M1567 3163 c-14 -13 -6 -23 18 -23 16 0 25 6 25 15 0 15 -31 21 -43
8z"/>
<path d="M1640 3155 c0 -8 9 -15 20 -15 11 0 20 7 20 15 0 8 -9 15 -20 15 -11
0 -20 -7 -20 -15z"/>
<path d="M1730 3156 c0 -11 9 -16 26 -16 31 0 28 23 -4 28 -15 2 -22 -2 -22
-12z"/>
<path d="M1810 3155 c0 -8 9 -15 20 -15 11 0 20 7 20 15 0 8 -9 15 -20 15 -11
0 -20 -7 -20 -15z"/>
<path d="M1873 3158 c2 -7 12 -13 22 -13 10 0 20 6 23 13 2 7 -6 12 -23 12
-17 0 -25 -5 -22 -12z"/>
<path d="M1940 3155 c0 -8 9 -15 20 -15 11 0 20 7 20 15 0 8 -9 15 -20 15 -11
0 -20 -7 -20 -15z"/>
<path d="M1640 3045 c0 -8 9 -15 20 -15 11 0 20 7 20 15 0 8 -9 15 -20 15 -11
0 -20 -7 -20 -15z"/>
<path d="M1733 3048 c2 -7 12 -13 22 -13 10 0 20 6 23 13 2 7 -6 12 -23 12
-17 0 -25 -5 -22 -12z"/>
<path d="M1810 3045 c0 -8 9 -15 20 -15 11 0 20 7 20 15 0 8 -9 15 -20 15 -11
0 -20 -7 -20 -15z"/>
<path d="M1883 3048 c2 -7 12 -13 22 -13 10 0 20 6 23 13 2 7 -6 12 -23 12
-17 0 -25 -5 -22 -12z"/>
<path d="M1403 3038 c2 -7 12 -13 22 -13 10 0 20 6 23 13 2 7 -6 12 -23 12
-17 0 -25 -5 -22 -12z"/>
<path d="M1490 3035 c0 -8 9 -15 20 -15 11 0 20 7 20 15 0 8 -9 15 -20 15 -11
0 -20 -7 -20 -15z"/>
<path d="M1563 3038 c2 -7 12 -13 22 -13 10 0 20 6 23 13 2 7 -6 12 -23 12
-17 0 -25 -5 -22 -12z"/>
<path d="M1480 2916 c0 -11 9 -16 26 -16 31 0 28 23 -4 28 -15 2 -22 -2 -22
-12z"/>
<path d="M1567 2923 c-14 -13 -6 -23 18 -23 16 0 25 6 25 15 0 15 -31 21 -43
8z"/>
<path d="M1640 2915 c0 -8 9 -15 20 -15 11 0 20 7 20 15 0 8 -9 15 -20 15 -11
0 -20 -7 -20 -15z"/>
<path d="M1737 2923 c-14 -13 -6 -23 18 -23 16 0 25 6 25 15 0 15 -31 21 -43
8z"/>
<path d="M1807 2923 c-14 -13 -6 -23 18 -23 16 0 25 6 25 15 0 15 -31 21 -43
8z"/>
<path d="M1500 2815 c0 -8 9 -15 20 -15 11 0 20 7 20 15 0 8 -9 15 -20 15 -11
0 -20 -7 -20 -15z"/>
<path d="M1580 2815 c0 -8 9 -15 20 -15 11 0 20 7 20 15 0 8 -9 15 -20 15 -11
0 -20 -7 -20 -15z"/>
<path d="M1640 2815 c0 -8 9 -15 20 -15 11 0 20 7 20 15 0 8 -9 15 -20 15 -11
0 -20 -7 -20 -15z"/>
<path d="M1732 2818 c7 -20 48 -23 48 -4 0 11 -9 16 -26 16 -16 0 -24 -5 -22
-12z"/>
<path d="M1810 2815 c0 -8 9 -15 20 -15 11 0 20 7 20 15 0 8 -9 15 -20 15 -11
0 -20 -7 -20 -15z"/>
<path d="M1740 2745 c0 -8 9 -15 20 -15 11 0 20 7 20 15 0 8 -9 15 -20 15 -11
0 -20 -7 -20 -15z"/>
<path d="M1810 2745 c0 -8 9 -15 20 -15 11 0 20 7 20 15 0 8 -9 15 -20 15 -11
0 -20 -7 -20 -15z"/>
<path d="M1897 2754 c-14 -14 -6 -24 19 -24 16 0 24 5 22 13 -5 14 -31 21 -41
11z"/>
<path d="M4240 3062 c-34 -17 -78 -77 -66 -90 4 -3 16 -1 27 7 19 11 20 10 15
-7 -4 -11 0 -24 9 -32 12 -10 16 -8 25 14 10 28 24 33 36 14 4 -7 -2 -18 -14
-26 -28 -18 -28 -32 -1 -32 21 0 79 50 79 69 0 6 -6 11 -14 11 -7 0 -19 7 -26
15 -11 13 -9 20 9 39 11 12 18 26 14 29 -12 13 -57 7 -93 -11z"/>
<path d="M4534 2779 c-3 -6 -1 -16 4 -21 13 -13 45 8 36 23 -7 12 -31 11 -40
-2z"/>
<path d="M4032 2378 c7 -20 48 -23 48 -4 0 11 -9 16 -26 16 -16 0 -24 -5 -22
-12z"/>
<path d="M4020 2266 c0 -11 9 -16 26 -16 31 0 28 23 -4 28 -15 2 -22 -2 -22
-12z"/>
<path d="M3930 2170 c0 -5 11 -10 25 -10 14 0 25 5 25 10 0 6 -11 10 -25 10
-14 0 -25 -4 -25 -10z"/>
<path d="M4020 2170 c0 -5 9 -10 20 -10 11 0 20 5 20 10 0 6 -9 10 -20 10 -11
0 -20 -4 -20 -10z"/>
<path d="M4100 2170 c0 -5 11 -10 25 -10 14 0 25 5 25 10 0 6 -11 10 -25 10
-14 0 -25 -4 -25 -10z"/>
<path d="M3850 2075 c0 -8 9 -15 20 -15 11 0 20 7 20 15 0 8 -9 15 -20 15 -11
0 -20 -7 -20 -15z"/>
<path d="M3930 2075 c0 -9 9 -15 25 -15 16 0 25 6 25 15 0 9 -9 15 -25 15 -16
0 -25 -6 -25 -15z"/>
<path d="M4010 2075 c0 -8 9 -15 20 -15 11 0 20 7 20 15 0 8 -9 15 -20 15 -11
0 -20 -7 -20 -15z"/>
<path d="M3920 1965 c0 -9 9 -15 25 -15 16 0 25 6 25 15 0 9 -9 15 -25 15 -16
0 -25 -6 -25 -15z"/>
<path d="M4000 1965 c0 -8 9 -15 20 -15 11 0 20 7 20 15 0 8 -9 15 -20 15 -11
0 -20 -7 -20 -15z"/>
<path d="M3760 1955 c0 -8 9 -15 20 -15 11 0 20 7 20 15 0 8 -9 15 -20 15 -11
0 -20 -7 -20 -15z"/>
<path d="M3850 1955 c0 -8 9 -15 20 -15 11 0 20 7 20 15 0 8 -9 15 -20 15 -11
0 -20 -7 -20 -15z"/>
<path d="M3770 1865 c0 -8 9 -15 20 -15 11 0 20 7 20 15 0 8 -9 15 -20 15 -11
0 -20 -7 -20 -15z"/>
<path d="M3840 1865 c0 -9 9 -15 25 -15 16 0 25 6 25 15 0 9 -9 15 -25 15 -16
0 -25 -6 -25 -15z"/>
<path d="M3930 1865 c0 -9 9 -15 25 -15 16 0 25 6 25 15 0 9 -9 15 -25 15 -16
0 -25 -6 -25 -15z"/>
<path d="M3680 1855 c0 -8 9 -15 20 -15 11 0 20 7 20 15 0 8 -9 15 -20 15 -11
0 -20 -7 -20 -15z"/>
<path d="M970 3200 c-6 -12 -8 -29 -4 -38 5 -13 9 -8 15 18 9 42 5 50 -11 20z"/>
<path d="M1004 3164 c-4 -14 -2 -30 5 -37 8 -8 11 -6 11 10 0 12 3 28 6 37 3
9 1 16 -5 16 -6 0 -14 -12 -17 -26z"/>
<path d="M1056 3134 c-13 -13 -14 -19 -4 -37 12 -21 12 -21 16 -2 2 11 11 28
20 38 14 15 14 17 -1 17 -8 0 -23 -7 -31 -16z"/>
<path d="M1106 3056 c-20 -31 -18 -77 4 -84 8 -3 12 -1 8 3 -4 4 -1 22 6 39 7
17 10 40 6 50 -5 17 -8 16 -24 -8z"/>
<path d="M1152 2977 c-21 -22 -31 -67 -14 -67 11 0 45 66 40 80 -2 7 -12 2
-26 -13z"/>
<path d="M1197 2902 c-15 -15 -27 -39 -27 -53 1 -24 1 -24 30 9 17 18 30 41
30 52 0 26 -1 25 -33 -8z"/>
<path d="M1219 2827 c-15 -18 -29 -41 -32 -52 -7 -23 11 -58 19 -38 3 7 16 28
30 48 23 34 32 76 17 74 -5 0 -20 -15 -34 -32z"/>
<path d="M1245 2746 c-18 -27 -17 -87 2 -93 12 -4 16 7 28 80 7 43 -7 49 -30
13z"/>
<path d="M1297 2705 c-21 -77 -18 -115 9 -115 16 0 19 79 5 115 l-8 20 -6 -20z"/>
<path d="M1370 2632 c0 -10 22 -32 32 -32 15 0 8 28 -8 34 -21 8 -24 8 -24 -2z"/>
<path d="M3874 3255 c-4 -9 -2 -21 4 -27 15 -15 44 -1 40 19 -4 23 -36 29 -44
8z"/>
<path d="M3954 3255 c-4 -9 -2 -21 4 -27 15 -15 44 -1 40 19 -4 23 -36 29 -44
8z"/>
<path d="M3950 3150 c0 -15 7 -20 25 -20 18 0 25 5 25 20 0 15 -7 20 -25 20
-18 0 -25 -5 -25 -20z"/>
<path d="M3960 3060 c0 -15 7 -20 25 -20 18 0 25 5 25 20 0 15 -7 20 -25 20
-18 0 -25 -5 -25 -20z"/>
<path d="M3980 2950 c0 -13 7 -20 20 -20 13 0 20 7 20 20 0 13 -7 20 -20 20
-13 0 -20 -7 -20 -20z"/>
<path d="M4490 3225 c0 -18 5 -25 20 -25 15 0 20 7 20 25 0 18 -5 25 -20 25
-15 0 -20 -7 -20 -25z"/>
<path d="M4550 3130 c0 -15 7 -20 25 -20 18 0 25 5 25 20 0 15 -7 20 -25 20
-18 0 -25 -5 -25 -20z"/>
<path d="M4620 3130 c0 -13 7 -20 20 -20 13 0 20 7 20 20 0 13 -7 20 -20 20
-13 0 -20 -7 -20 -20z"/>
<path d="M4710 3120 c0 -13 7 -20 20 -20 13 0 20 7 20 20 0 13 -7 20 -20 20
-13 0 -20 -7 -20 -20z"/>
<path d="M4630 3019 c0 -15 5 -20 22 -17 34 5 37 38 4 38 -20 0 -26 -5 -26
-21z"/>
<path d="M4710 3015 c0 -18 5 -25 20 -25 15 0 20 7 20 25 0 18 -5 25 -20 25
-15 0 -20 -7 -20 -25z"/>
<path d="M4810 3010 c0 -13 7 -20 20 -20 13 0 20 7 20 20 0 13 -7 20 -20 20
-13 0 -20 -7 -20 -20z"/>
<path d="M4820 2910 c0 -13 7 -20 20 -20 13 0 20 7 20 20 0 13 -7 20 -20 20
-13 0 -20 -7 -20 -20z"/>
<path d="M4820 2830 c0 -13 7 -20 20 -20 13 0 20 7 20 20 0 13 -7 20 -20 20
-13 0 -20 -7 -20 -20z"/>
<path d="M4820 2750 c0 -13 7 -20 20 -20 13 0 20 7 20 20 0 13 -7 20 -20 20
-13 0 -20 -7 -20 -20z"/>
<path d="M1940 2465 c0 -8 9 -15 20 -15 11 0 20 7 20 15 0 8 -9 15 -20 15 -11
0 -20 -7 -20 -15z"/>
<path d="M2020 2465 c0 -9 9 -15 25 -15 16 0 25 6 25 15 0 9 -9 15 -25 15 -16
0 -25 -6 -25 -15z"/>
<path d="M2020 2395 c0 -9 9 -15 25 -15 16 0 25 6 25 15 0 9 -9 15 -25 15 -16
0 -25 -6 -25 -15z"/>
<path d="M2100 2395 c0 -9 9 -15 25 -15 16 0 25 6 25 15 0 9 -9 15 -25 15 -16
0 -25 -6 -25 -15z"/>
<path d="M1950 2375 c0 -9 9 -15 25 -15 16 0 25 6 25 15 0 9 -9 15 -25 15 -16
0 -25 -6 -25 -15z"/>
<path d="M2130 2300 c0 -13 7 -20 20 -20 13 0 20 7 20 20 0 13 -7 20 -20 20
-13 0 -20 -7 -20 -20z"/>
<path d="M2040 2280 c0 -13 7 -20 20 -20 13 0 20 7 20 20 0 13 -7 20 -20 20
-13 0 -20 -7 -20 -20z"/>
<path d="M2220 2081 c0 -16 6 -21 26 -21 33 0 30 33 -4 38 -17 3 -22 -2 -22
-17z"/>
<path d="M1180 2170 c0 -13 7 -20 20 -20 13 0 20 7 20 20 0 13 -7 20 -20 20
-13 0 -20 -7 -20 -20z"/>
<path d="M1260 2169 c0 -15 5 -20 22 -17 34 5 37 38 4 38 -20 0 -26 -5 -26
-21z"/>
<path d="M1020 2090 c0 -16 5 -21 23 -18 12 2 22 10 22 18 0 8 -10 16 -22 18
-18 3 -23 -2 -23 -18z"/>
<path d="M1100 2085 c0 -9 9 -15 25 -15 16 0 25 6 25 15 0 9 -9 15 -25 15 -16
0 -25 -6 -25 -15z"/>
<path d="M1180 2085 c0 -8 9 -15 20 -15 11 0 20 7 20 15 0 8 -9 15 -20 15 -11
0 -20 -7 -20 -15z"/>
<path d="M1270 2085 c0 -9 9 -15 25 -15 16 0 25 6 25 15 0 9 -9 15 -25 15 -16
0 -25 -6 -25 -15z"/>
<path d="M1340 2080 c0 -13 7 -20 20 -20 13 0 20 7 20 20 0 13 -7 20 -20 20
-13 0 -20 -7 -20 -20z"/>
<path d="M1420 2080 c0 -13 7 -20 20 -20 13 0 20 7 20 20 0 13 -7 20 -20 20
-13 0 -20 -7 -20 -20z"/>
<path d="M1480 2071 c0 -16 6 -21 26 -21 33 0 30 33 -4 38 -17 3 -22 -2 -22
-17z"/>
<path d="M1560 2070 c0 -13 7 -20 20 -20 13 0 20 7 20 20 0 13 -7 20 -20 20
-13 0 -20 -7 -20 -20z"/>
<path d="M1640 2070 c0 -13 7 -20 20 -20 13 0 20 7 20 20 0 13 -7 20 -20 20
-13 0 -20 -7 -20 -20z"/>
<path d="M1100 1995 c0 -9 9 -15 25 -15 16 0 25 6 25 15 0 9 -9 15 -25 15 -16
0 -25 -6 -25 -15z"/>
<path d="M1190 1991 c0 -16 6 -21 26 -21 33 0 30 33 -4 38 -17 3 -22 -2 -22
-17z"/>
<path d="M1260 1975 c0 -9 9 -15 25 -15 16 0 25 6 25 15 0 9 -9 15 -25 15 -16
0 -25 -6 -25 -15z"/>
<path d="M1340 1970 c0 -13 7 -20 20 -20 13 0 20 7 20 20 0 13 -7 20 -20 20
-13 0 -20 -7 -20 -20z"/>
<path d="M1420 1975 c0 -8 9 -15 20 -15 11 0 20 7 20 15 0 8 -9 15 -20 15 -11
0 -20 -7 -20 -15z"/>
<path d="M1490 1970 c0 -16 5 -21 23 -18 12 2 22 10 22 18 0 8 -10 16 -22 18
-18 3 -23 -2 -23 -18z"/>
<path d="M1570 1970 c0 -13 7 -20 20 -20 13 0 20 7 20 20 0 13 -7 20 -20 20
-13 0 -20 -7 -20 -20z"/>
<path d="M1640 1975 c0 -8 9 -15 20 -15 11 0 20 7 20 15 0 8 -9 15 -20 15 -11
0 -20 -7 -20 -15z"/>
<path d="M1720 1970 c0 -13 7 -20 20 -20 13 0 20 7 20 20 0 13 -7 20 -20 20
-13 0 -20 -7 -20 -20z"/>
<path d="M1805 1980 c-9 -15 4 -30 26 -30 12 0 19 7 19 20 0 21 -33 29 -45 10z"/>
<path d="M1100 1895 c0 -9 9 -15 25 -15 16 0 25 6 25 15 0 9 -9 15 -25 15 -16
0 -25 -6 -25 -15z"/>
<path d="M1202 1883 c2 -10 12 -18 23 -18 11 0 21 8 23 18 3 13 -3 17 -23 17
-20 0 -26 -4 -23 -17z"/>
<path d="M1270 1879 c0 -15 5 -20 22 -17 34 5 37 38 4 38 -20 0 -26 -5 -26
-21z"/>
<path d="M1350 1880 c0 -13 7 -20 20 -20 13 0 20 7 20 20 0 13 -7 20 -20 20
-13 0 -20 -7 -20 -20z"/>
<path d="M1420 1880 c0 -13 7 -20 20 -20 13 0 20 7 20 20 0 13 -7 20 -20 20
-13 0 -20 -7 -20 -20z"/>
<path d="M1490 1881 c0 -16 6 -21 26 -21 33 0 30 33 -4 38 -17 3 -22 -2 -22
-17z"/>
<path d="M1570 1880 c0 -13 7 -20 20 -20 13 0 20 7 20 20 0 13 -7 20 -20 20
-13 0 -20 -7 -20 -20z"/>
<path d="M1640 1880 c0 -13 7 -20 20 -20 13 0 20 7 20 20 0 13 -7 20 -20 20
-13 0 -20 -7 -20 -20z"/>
<path d="M1720 1880 c0 -13 7 -20 20 -20 13 0 20 7 20 20 0 13 -7 20 -20 20
-13 0 -20 -7 -20 -20z"/>
<path d="M1802 1883 c2 -10 13 -19 26 -21 17 -3 22 2 22 17 0 16 -6 21 -26 21
-19 0 -25 -5 -22 -17z"/>
<path d="M4620 2120 c0 -13 7 -20 20 -20 13 0 20 7 20 20 0 13 -7 20 -20 20
-13 0 -20 -7 -20 -20z"/>
<path d="M4600 2030 c0 -13 7 -20 20 -20 13 0 20 7 20 20 0 13 -7 20 -20 20
-13 0 -20 -7 -20 -20z"/>
<path d="M4590 1935 c0 -8 9 -15 20 -15 11 0 20 7 20 15 0 8 -9 15 -20 15 -11
0 -20 -7 -20 -15z"/>
<path d="M2270 935 c0 -8 16 -33 37 -55 36 -41 37 -41 90 -34 53 6 53 6 96
-38 23 -24 57 -62 76 -84 28 -32 35 -36 39 -21 7 35 -136 194 -203 226 -54 25
-135 29 -135 6z"/>
<path d="M4840 942 c0 -15 51 -82 70 -92 12 -6 40 -8 68 -4 45 6 51 4 83 -28
19 -18 51 -55 72 -81 21 -26 42 -47 47 -47 24 0 5 36 -64 118 -86 104 -148
142 -228 142 -26 0 -48 -3 -48 -8z"/>
<path d="M667 663 c-4 -3 -7 -21 -7 -40 l0 -33 85 0 85 0 0 -68 c0 -45 -5 -75
-15 -90 -15 -21 -17 -21 -56 -6 -48 20 -69 8 -69 -40 1 -48 34 -110 110 -205
84 -106 152 -171 180 -171 42 0 13 50 -63 109 -29 22 -60 53 -69 69 -17 29
-17 31 16 93 18 35 38 65 43 66 5 2 27 -10 48 -27 35 -28 43 -30 123 -30 l85
0 -6 -74 c-3 -41 -2 -91 3 -111 8 -35 54 -95 72 -95 4 0 8 131 8 290 l0 290
283 -2 282 -3 3 -45 c6 -85 -28 -99 -247 -100 -118 0 -138 -2 -168 -21 -80
-50 -83 -140 -7 -251 49 -72 136 -158 160 -158 31 0 11 36 -55 99 -77 74 -92
111 -71 176 19 59 57 75 172 75 l97 0 22 -32 c37 -55 82 -99 121 -119 45 -23
122 -25 162 -4 15 8 30 15 32 15 2 0 4 -28 4 -63 0 -61 1 -64 43 -105 23 -23
46 -42 50 -42 4 0 7 130 7 290 l0 290 90 0 90 0 0 -115 0 -115 -33 0 c-36 0
-57 -15 -57 -41 0 -22 93 -133 123 -146 38 -18 61 -1 67 48 l5 44 108 3 107 3
0 -95 c0 -92 1 -96 31 -131 59 -67 59 -65 59 255 l0 290 210 0 210 0 0 -85 0
-85 -53 30 c-85 48 -200 38 -241 -21 -39 -57 4 -181 81 -234 44 -30 122 -34
180 -10 19 8 37 15 39 15 2 0 4 -27 4 -60 0 -52 4 -64 31 -95 17 -19 35 -35
40 -35 5 0 9 126 9 290 l0 290 40 0 40 0 0 40 0 40 -1318 0 c-725 0 -1322 -3
-1325 -7z m493 -169 l0 -95 -35 -15 c-34 -14 -169 -20 -199 -8 -13 5 -16 25
-16 110 l0 104 125 0 125 0 0 -96z m880 -1 c0 -113 -15 -154 -68 -190 -67 -45
-175 -38 -208 12 -20 30 -13 41 29 49 19 3 44 17 57 31 22 24 23 28 12 89 -21
112 -26 106 83 106 l95 0 0 -97z m590 -18 l0 -115 -115 0 -115 0 0 108 c0 60
3 112 7 115 3 4 55 7 115 7 l108 0 0 -115z m479 -71 c31 -6 32 -8 29 -53 -3
-43 -6 -47 -46 -70 -57 -31 -161 -41 -181 -17 -30 36 18 128 72 139 36 7 93 7
126 1z"/>
<path d="M3567 663 c-4 -3 -7 -21 -7 -40 l0 -33 270 0 270 0 0 -75 0 -75 -160
0 c-88 0 -160 -2 -160 -5 0 -3 23 -33 50 -66 38 -45 50 -68 50 -93 0 -69 -76
-88 -146 -37 -27 20 -52 54 -79 107 -23 45 -48 80 -58 82 -26 5 -21 -20 18
-99 68 -138 159 -219 244 -219 96 1 124 75 70 182 -11 21 -19 42 -19 48 0 6
36 10 95 10 l95 0 0 -138 0 -138 41 -32 c23 -17 46 -29 50 -26 5 3 9 133 9
290 l0 284 109 0 c71 0 112 -4 117 -11 4 -6 7 -30 7 -52 0 -52 -25 -73 -98
-82 -31 -4 -57 -11 -60 -14 -5 -9 77 -136 113 -174 58 -61 154 -83 227 -53
l35 15 0 -60 c0 -56 3 -62 41 -104 23 -25 45 -45 50 -45 5 0 9 130 9 290 l0
290 230 0 231 0 -3 -72 -3 -73 -132 -5 c-113 -4 -136 -8 -160 -26 -93 -68 -73
-183 55 -324 57 -63 106 -97 117 -80 10 16 -11 44 -61 85 -61 50 -84 89 -84
145 0 89 46 120 180 120 l90 0 0 -143 0 -144 39 -31 c22 -18 42 -32 45 -32 3
0 7 129 8 288 l3 287 33 3 c32 3 33 5 30 40 l-3 37 -896 3 c-492 1 -899 -1
-902 -5z m1091 -189 l-3 -116 -37 -33 c-60 -55 -133 -68 -198 -35 -30 16 -40
26 -40 45 0 19 5 25 20 25 35 0 79 29 86 56 4 14 1 51 -5 81 -19 98 -24 93 85
93 l96 0 -4 -116z"/>
</g>
</svg>
